<?xml version="1.0" standalone="no"?>
<!DOCTYPE svg PUBLIC "-//W3C//DTD SVG 20010904//EN"
 "http://www.w3.org/TR/2001/REC-SVG-20010904/DTD/svg10.dtd">
<svg version="1.0" xmlns="http://www.w3.org/2000/svg"
 width="350.000000pt" height="263.000000pt" viewBox="0 0 350.000000 263.000000"
 preserveAspectRatio="xMidYMid meet">

<g transform="translate(0.000000,263.000000) scale(0.100000,-0.100000)"
fill="#000000" stroke="none">
<path d="M1101 2313 c-1 -7 -9 -10 -18 -7 -17 5 -17 5 0 -6 18 -11 25 -36 7
-25 -5 3 -10 -1 -10 -9 0 -14 -17 -21 -42 -17 -4 0 -5 -12 -3 -27 1 -15 7 -26
12 -25 5 1 9 -9 9 -23 0 -29 -4 -30 -23 -6 -12 15 -12 14 -2 -10 7 -15 16 -25
21 -22 5 3 12 -4 15 -16 4 -16 8 -18 14 -8 6 9 9 9 9 1 0 -21 -20 -25 -44 -9
-29 19 -44 8 -16 -11 11 -8 18 -19 15 -24 -10 -15 -33 -10 -39 9 -10 32 -41
43 -73 27 -32 -17 -69 -21 -43 -5 8 5 11 12 7 16 -3 4 -14 1 -23 -7 -9 -8 -24
-14 -32 -14 -8 0 -17 -6 -20 -14 -3 -8 0 -11 7 -7 7 5 11 -1 11 -13 0 -13 -6
-21 -17 -21 -15 0 -16 2 -3 10 13 8 12 10 -2 10 -23 0 -23 -16 -2 -28 16 -9
12 -32 -5 -32 -14 0 -28 65 -19 89 7 19 5 22 -8 17 -8 -3 -19 -6 -24 -6 -14 0
-7 -39 7 -44 7 -3 13 -10 13 -16 0 -6 -4 -8 -10 -5 -6 3 -7 -1 -4 -9 3 -9 1
-16 -4 -16 -6 0 -14 10 -18 22 -6 19 -7 20 -16 4 -8 -13 -13 -15 -24 -5 -24
20 -46 -7 -38 -49 5 -24 3 -33 -4 -28 -7 4 -20 2 -31 -3 -14 -8 -21 -8 -24 2
-3 9 -7 9 -19 -1 -12 -9 -23 -10 -43 -2 -23 9 -26 8 -21 -5 4 -11 -1 -15 -20
-15 -27 0 -60 -25 -45 -34 5 -4 17 -3 27 1 12 4 15 3 10 -5 -4 -7 -16 -12 -28
-12 -15 0 -18 -3 -11 -12 12 -17 14 -60 2 -53 -5 4 -19 -1 -31 -9 l-22 -16 21
0 c16 0 21 -4 17 -15 -4 -9 0 -15 10 -15 10 0 13 -6 10 -15 -4 -9 0 -15 10
-15 9 0 16 -4 16 -10 0 -5 -7 -10 -15 -10 -8 0 -15 -4 -15 -10 0 -5 12 -10 28
-10 20 0 23 -3 13 -9 -12 -7 -12 -13 -3 -24 7 -7 8 -18 4 -22 -4 -5 -1 -5 6
-1 7 4 10 12 6 18 -4 5 2 8 13 6 11 -2 26 2 34 9 20 16 65 21 62 6 -2 -7 8
-10 25 -8 15 2 37 -3 50 -11 28 -18 28 -11 0 16 -12 11 -19 22 -16 26 4 3 15
-3 26 -14 20 -20 20 -20 33 10 9 21 14 26 20 16 6 -8 9 -9 9 -1 0 6 9 9 21 6
21 -6 21 -7 3 -21 -18 -13 -18 -14 6 -8 23 7 24 6 7 -7 -14 -11 -15 -16 -5
-20 8 -4 7 -6 -4 -6 -10 -1 -18 -8 -18 -17 0 -11 6 -15 19 -11 14 3 19 0 18
-12 -1 -13 -11 -17 -40 -18 -25 0 -34 2 -26 7 7 5 17 6 23 3 5 -4 6 -1 2 6 -5
7 -15 10 -23 7 -8 -4 -29 5 -46 20 -16 14 -33 22 -36 17 -3 -5 -19 -16 -34
-26 -30 -19 -27 -42 4 -34 12 3 17 1 12 -6 -4 -6 -8 -28 -9 -50 -2 -30 1 -36
11 -27 9 8 14 6 19 -5 6 -17 -16 -31 -33 -21 -5 4 -15 -9 -22 -29 -8 -21 -23
-38 -38 -44 -14 -5 -19 -10 -11 -10 9 -1 26 6 38 15 28 19 28 11 0 -16 -12
-11 -18 -23 -15 -27 4 -4 13 -1 19 5 23 23 30 12 23 -35 -9 -61 -15 -67 -51
-48 -40 20 -45 19 -38 -10 7 -28 0 -30 -36 -10 -31 18 -63 19 -57 3 2 -7 15
-12 28 -11 14 2 18 0 9 -4 -8 -3 -21 -13 -30 -22 -13 -13 -13 -14 3 -8 19 7
24 -8 5 -17 -7 -4 -4 -5 8 -2 25 4 61 -19 44 -29 -5 -3 -8 -11 -4 -16 3 -5 10
-7 15 -4 5 4 9 1 9 -4 0 -20 -26 -11 -39 12 -7 13 -18 24 -24 25 -7 0 -33 2
-59 4 -26 2 -51 8 -55 12 -12 12 20 27 45 21 15 -4 22 -1 22 10 0 23 -41 14
-72 -17 -16 -15 -28 -33 -28 -39 0 -6 -14 -27 -31 -46 -17 -21 -28 -41 -25
-50 5 -11 2 -13 -9 -9 -9 3 -13 2 -10 -4 3 -6 13 -10 21 -10 19 0 18 -9 -3
-34 -18 -21 -18 -21 3 -3 27 22 58 23 50 1 -6 -15 -4 -15 10 -3 15 13 17 11
12 -18 -2 -18 -1 -30 4 -27 4 3 8 12 8 21 0 11 6 14 24 9 14 -3 28 -2 31 4 8
14 46 -12 40 -27 -2 -7 -1 -13 4 -13 4 0 8 -7 8 -15 0 -8 -5 -15 -11 -15 -6 0
-4 -5 4 -10 12 -8 13 -11 1 -19 -10 -7 -10 -10 -1 -16 8 -5 19 1 30 15 12 15
19 19 24 11 4 -7 -2 -19 -15 -30 -12 -10 -19 -23 -15 -29 11 -18 26 -14 26 6
0 9 4 13 8 7 4 -5 18 -19 31 -30 26 -21 21 -6 -8 29 -9 11 -10 16 -3 12 8 -5
12 1 12 18 0 35 12 38 39 10 30 -32 57 -30 76 4 9 15 14 18 10 8 -4 -15 -3
-17 9 -7 10 9 16 9 21 1 10 -17 34 20 35 53 0 15 -5 27 -11 27 -5 0 -7 -4 -4
-10 3 -5 1 -10 -4 -10 -6 0 -11 4 -11 9 0 5 -12 12 -26 15 -15 4 -24 9 -21 12
7 8 117 -7 115 -15 -1 -3 4 -17 10 -31 6 -14 11 -19 11 -13 1 7 9 12 19 10 26
-4 62 -44 56 -61 -3 -8 -1 -23 4 -33 10 -17 11 -17 18 0 6 17 9 16 35 -9 16
-15 29 -38 29 -50 0 -29 -29 -39 -47 -17 -13 16 -13 16 -4 -4 6 -12 8 -29 5
-37 -4 -10 -1 -16 7 -16 8 0 -1 -9 -18 -20 -18 -11 -33 -24 -33 -30 0 -5 -8
-10 -17 -10 -15 1 -15 3 5 19 33 28 28 40 -12 27 -29 -9 -32 -13 -23 -28 9
-13 7 -21 -6 -36 -21 -23 -22 -42 -2 -42 8 0 18 0 23 0 4 0 8 5 8 10 1 6 2 13
3 17 2 14 51 -41 51 -59 0 -10 5 -18 10 -18 6 0 10 -6 10 -14 0 -7 7 -19 15
-26 12 -10 15 -10 15 0 0 8 6 21 14 29 8 9 17 34 19 56 6 54 17 77 33 71 9 -3
14 1 14 12 0 10 5 23 12 30 9 9 8 12 -4 12 -9 0 -20 9 -23 20 -3 11 -13 20
-21 20 -8 0 -14 5 -14 11 0 13 25 39 38 39 5 0 12 14 16 30 6 34 22 39 31 10
7 -23 25 -27 25 -5 0 8 5 15 11 15 19 0 2 -56 -26 -84 -27 -27 -36 -58 -11
-37 16 13 20 8 29 -30 6 -22 11 -25 32 -21 28 5 31 -4 10 -32 -21 -27 -19 -42
3 -24 17 16 42 13 53 -5 11 -16 29 3 29 31 1 22 2 24 10 10 6 -9 11 -29 12
-45 2 -35 15 -53 39 -53 21 0 26 29 8 47 -6 6 -9 21 -7 34 l5 24 11 -25 c6
-15 11 -19 11 -9 1 9 -8 26 -19 39 -11 13 -20 28 -20 34 0 6 -7 2 -15 -8 -18
-23 -21 -21 -29 19 -3 17 -3 24 0 18 3 -7 18 -13 32 -13 15 0 39 -7 55 -14 27
-15 27 -14 27 15 0 24 4 29 25 29 23 0 24 -2 15 -20 -9 -16 -8 -19 6 -13 14 5
15 3 5 -15 -17 -32 -14 -58 9 -59 14 -1 20 4 20 18 0 10 4 19 8 19 11 0 2 -72
-11 -88 -7 -9 -4 -12 14 -10 26 3 50 27 42 42 -4 5 -1 6 4 3 6 -4 14 0 17 9 3
9 12 14 20 11 21 -8 25 1 16 34 -6 22 -5 29 5 29 15 0 42 -38 51 -74 5 -22 3
-26 -14 -26 -12 0 -24 -4 -27 -10 -4 -6 6 -7 25 -4 33 7 38 -3 19 -38 -6 -12
-7 -23 -2 -27 5 -3 11 -17 13 -31 5 -34 5 -217 -1 -375 -3 -72 -3 -138 -1
-147 4 -16 18 -18 110 -18 l105 0 -7 143 c-5 78 -10 160 -12 182 -2 22 -5 113
-6 202 -3 173 3 201 38 172 16 -12 17 -12 11 4 -16 41 -18 65 -8 71 6 4 11 1
12 -6 1 -7 4 -2 8 12 6 21 12 24 43 22 20 -2 39 1 42 7 8 12 -37 26 -59 17
-21 -8 -19 4 8 41 26 37 152 134 169 130 7 -1 12 3 13 8 0 6 6 19 13 30 10 18
11 17 8 -10 -2 -16 -7 -39 -11 -50 -6 -16 -2 -14 23 9 29 27 32 28 37 10 4
-10 13 -35 22 -54 12 -27 17 -31 23 -19 12 21 -13 102 -40 129 -19 19 -20 47
0 35 4 -3 13 2 20 10 14 17 40 20 40 5 0 -6 6 -9 13 -8 8 2 11 -7 9 -24 -2
-22 2 -27 28 -33 16 -4 30 -12 30 -18 0 -8 3 -7 9 1 12 19 46 10 45 -11 -2
-25 23 -21 30 5 4 18 8 20 18 10 10 -10 8 -15 -10 -28 -30 -21 -28 -42 6 -46
22 -2 26 -7 24 -27 -3 -16 1 -22 10 -19 7 3 14 17 16 32 4 35 24 42 56 21 25
-16 26 -16 26 1 0 10 -12 28 -27 41 l-28 22 38 1 c36 0 37 -1 37 -35 0 -32 2
-34 19 -23 11 7 24 21 30 33 8 16 9 13 4 -15 l-6 -35 32 28 c35 29 46 33 56
17 3 -5 15 -10 26 -10 16 0 17 3 9 20 -5 11 -14 29 -19 39 -11 20 3 38 47 60
25 13 30 41 7 41 -8 0 -15 4 -15 8 0 11 32 12 46 0 8 -6 10 4 7 37 -6 52 12
106 33 98 15 -5 44 13 44 28 0 5 -8 9 -17 10 -12 0 -13 2 -5 6 10 4 10 8 1 20
-11 12 -9 13 12 8 18 -4 30 0 43 14 17 19 17 20 -23 40 -22 12 -47 21 -55 21
-10 0 -13 6 -10 15 4 8 1 15 -4 15 -8 0 -8 9 -1 30 6 17 16 30 22 30 7 0 7 -4
-1 -12 -7 -7 -12 -17 -12 -24 0 -17 32 -27 41 -13 4 6 12 8 19 4 9 -5 10 -2 6
13 -4 11 -2 23 4 27 5 3 10 -2 10 -13 0 -31 26 -47 54 -34 23 10 24 9 24 -25
0 -19 5 -40 11 -46 7 -7 9 0 4 26 -6 38 1 44 46 37 13 -1 13 1 1 15 -9 11 -16
13 -18 6 -4 -13 -22 -5 -22 10 0 13 34 11 49 -3 7 -7 12 -8 11 -3 -5 23 1 35
17 35 24 0 7 13 -19 14 -16 1 -24 8 -26 23 -2 12 -9 26 -16 32 -10 8 -11 23
-4 58 5 27 10 56 11 66 1 9 4 17 7 17 4 0 7 14 7 30 0 31 -17 43 -17 13 -1
-17 -1 -17 -14 0 -7 9 -20 17 -28 17 -8 0 -20 12 -27 27 l-12 27 -17 -25 c-10
-14 -24 -23 -34 -21 -9 2 -19 -2 -23 -7 -8 -13 -25 -14 -44 -2 -12 8 -12 12
-2 25 10 11 18 12 42 4 22 -7 33 -7 44 2 15 13 21 61 8 58 -23 -4 -40 15 -36
40 3 20 2 23 -5 13 -12 -17 -42 -24 -42 -10 0 6 -9 5 -21 -1 -11 -7 -23 -9
-26 -6 -3 3 -14 1 -23 -4 -14 -7 -17 -6 -16 8 1 16 -18 20 -49 12 -5 -1 -26
-2 -45 0 l-35 1 45 21 c25 12 48 22 52 22 4 1 13 7 20 14 19 19 28 14 28 -17
0 -34 15 -49 24 -25 11 28 6 49 -14 67 -22 19 -40 15 -40 -9 0 -18 -9 -18 -30
1 -16 14 -18 13 -24 -15 -7 -40 -42 -39 -39 0 3 24 2 24 -12 6 -15 -19 -15
-19 -15 2 0 28 -14 28 -29 0 -6 -13 -9 -15 -6 -5 3 12 -3 21 -18 27 l-22 9 23
0 c23 1 30 15 12 26 -6 3 -10 2 -10 -4 0 -6 -7 -8 -15 -5 -8 4 -12 11 -8 17 3
6 1 7 -6 3 -11 -7 -44 17 -36 26 3 3 -2 5 -9 5 -8 0 -15 -3 -14 -6 3 -26 -3
-32 -17 -17 -17 17 -20 30 -5 21 6 -3 10 -2 10 4 0 19 -20 22 -44 6 -25 -17
-25 -17 -6 -38 11 -11 22 -29 26 -39 4 -14 14 -18 37 -17 47 3 77 -9 77 -32 0
-11 4 -17 10 -14 6 3 7 -1 4 -9 -3 -9 -10 -16 -16 -16 -5 0 -7 -4 -4 -9 13
-20 -70 2 -89 24 -16 18 -25 21 -38 14 -13 -8 -17 -6 -17 10 0 11 -3 26 -6 35
-4 11 -1 16 10 16 26 0 18 17 -13 28 -16 6 -39 20 -50 31 -23 23 -42 28 -38
10 1 -6 -2 -13 -8 -15 -5 -2 -10 12 -10 31 0 24 5 35 15 35 9 0 15 9 15 25 0
14 -4 25 -8 25 -5 0 -6 4 -3 9 3 4 -6 6 -19 3 -18 -3 -25 0 -25 12 0 9 -4 16
-10 16 -14 0 -12 27 3 33 6 3 3 6 -7 6 -20 1 -20 1 0 16 14 11 15 14 3 9 -10
-3 -20 0 -24 5 -3 6 -11 9 -16 5 -5 -3 -6 -11 -2 -17 4 -7 -1 -6 -10 2 -10 8
-20 11 -24 7 -3 -3 -2 -6 4 -6 14 0 24 -38 12 -46 -6 -3 0 -14 12 -25 17 -15
24 -17 31 -7 5 10 8 8 8 -4 0 -16 10 -22 31 -20 3 1 6 -6 6 -14 0 -8 -10 -14
-21 -15 -21 0 -21 -1 -1 -9 17 -7 16 -9 -10 -10 l-30 -1 24 -13 c14 -8 19 -16
13 -20 -14 -8 -39 2 -46 20 -3 8 -13 14 -23 14 -12 0 -14 -3 -6 -11 8 -8 6
-19 -6 -40 -9 -16 -20 -29 -25 -29 -8 0 -3 54 9 97 3 10 -3 1 -12 -20 -14 -30
-21 -35 -30 -26 -7 7 -16 10 -19 6 -4 -3 0 -13 9 -21 8 -8 17 -12 21 -9 9 9 7
-2 -5 -34 -6 -15 -10 -30 -11 -33 0 -3 -4 -10 -9 -17 -11 -13 0 -23 22 -19 32
7 49 19 49 36 0 25 10 50 21 50 5 0 4 -12 -1 -26 l-10 -25 29 20 c16 12 37 21
48 21 16 -1 16 -3 -4 -19 -13 -11 -23 -27 -23 -36 0 -9 -4 -13 -10 -10 -5 3
-10 -1 -10 -9 0 -9 5 -16 11 -16 5 0 7 -5 3 -11 -4 -7 -9 -8 -13 -1 -10 16
-46 19 -43 3 2 -8 -3 -11 -13 -8 -8 4 -15 2 -15 -4 0 -6 -4 -8 -10 -4 -5 3 -6
13 -3 23 6 15 5 15 -11 -1 -22 -22 -41 -17 -41 9 0 10 -4 25 -8 32 -10 14 1
35 14 27 5 -4 9 -2 9 4 0 12 -36 25 -48 17 -11 -7 -47 18 -48 33 -1 6 -2 16
-3 22 0 5 -6 7 -11 4 -6 -3 -15 6 -20 21 -6 15 -18 34 -28 41 -9 8 -12 12 -6
9 7 -3 9 3 6 19 -5 30 -22 33 -22 5 0 -11 -5 -20 -11 -20 -6 0 -1 -9 12 -20
13 -10 19 -19 13 -20 -5 0 -15 5 -22 12 -15 15 -52 -16 -52 -44 0 -16 -3 -17
-20 -8 -16 9 -22 8 -26 -5 -3 -8 -10 -13 -14 -10 -5 3 -15 -3 -22 -13 -7 -10
-20 -22 -28 -27 -8 -4 -5 3 7 16 15 17 19 29 13 39 -7 12 -12 11 -31 -5 -12
-11 -19 -14 -15 -8 5 9 2 11 -8 7 -9 -3 -13 -10 -10 -15 3 -5 -2 -6 -10 -3 -9
3 -16 1 -16 -5 0 -6 -18 2 -39 17 -21 15 -39 29 -39 32 0 3 0 12 -1 20 -1 13
-2 13 -11 0 -8 -13 -10 -12 -10 3 0 9 -4 17 -10 17 -5 0 -10 5 -10 11 0 6 9 8
20 4 15 -5 18 -3 14 9 -8 21 -20 20 -36 -3 -12 -17 -16 -17 -33 -5 -16 12 -17
14 -2 14 22 0 22 12 0 36 -10 11 -26 18 -37 16 -13 -3 -16 0 -11 10 5 7 4 10
-1 5 -5 -5 -10 -13 -10 -18 -1 -5 -2 -11 -3 -14 0 -3 -10 4 -21 15 -26 26 -35
25 -37 -2 -2 -16 0 -19 6 -9 10 16 31 6 31 -14 0 -8 7 -11 18 -9 10 3 22 -4
30 -16 13 -21 12 -21 -13 -4 -16 10 -25 12 -25 5 0 -8 -6 -9 -17 -3 -13 7 -23
4 -35 -8 -17 -16 -17 -17 6 -29 17 -9 22 -19 18 -34 -3 -14 -1 -18 6 -13 7 4
12 16 12 27 0 10 5 19 11 19 7 0 8 -7 4 -17 -4 -10 -8 -27 -9 -38 -1 -27 42
-23 62 6 19 27 37 10 28 -25 -4 -17 -13 -26 -27 -26 -13 0 -18 -4 -13 -12 6
-9 3 -9 -9 1 -25 20 -50 6 -45 -24 4 -19 1 -25 -12 -25 -9 0 -25 -8 -36 -18
-18 -18 -20 -17 -49 14 -24 25 -37 31 -60 28 -27 -3 -28 -3 -5 4 17 5 21 10
12 16 -16 10 -16 29 1 24 6 -3 12 -10 12 -16 0 -7 3 -12 8 -12 9 0 7 8 -6 37
-10 23 -37 39 -37 23 0 -25 -18 -6 -29 31 -10 32 -10 44 0 55 6 8 9 17 6 21
-4 3 -9 -2 -13 -11 -6 -15 -7 -15 -20 1 -13 16 -13 15 -5 -9 7 -19 6 -28 -3
-31 -14 -6 -39 29 -31 43 3 6 -1 7 -9 4 -9 -3 -14 -10 -11 -14 3 -5 -4 -11
-15 -15 -11 -4 -18 -11 -15 -16 4 -5 -1 -9 -9 -9 -20 0 -20 14 -1 30 8 7 12
17 9 22 -4 6 -10 5 -15 -3 -7 -11 -9 -10 -9 5 0 18 35 56 52 56 4 0 8 12 8 28
0 19 -3 23 -9 13 -7 -11 -9 -11 -14 0 -4 9 -6 10 -6 2z m49 -168 c0 -13 38
-41 51 -38 3 1 6 -5 6 -13 0 -10 -7 -14 -18 -11 -10 3 -20 0 -23 -7 -2 -6 -5
-3 -5 7 -1 14 -5 16 -20 7 -25 -13 -41 -13 -21 0 10 6 11 10 3 10 -7 0 -13 6
-13 13 0 8 -10 19 -22 25 l-23 11 26 0 c14 1 31 -5 38 -11 11 -11 13 -9 8 10
-3 12 -1 20 4 16 5 -3 9 -12 9 -19z m50 -5 c0 -5 -5 -10 -11 -10 -5 0 -7 5 -4
10 3 6 8 10 11 10 2 0 4 -4 4 -10z m275 0 c3 -5 -1 -10 -9 -10 -9 0 -16 5 -16
10 0 6 4 10 9 10 6 0 13 -4 16 -10z m86 -50 c-18 -11 14 -33 37 -26 28 9 36
-20 12 -44 -26 -26 -33 -25 -28 5 5 22 2 25 -23 25 -30 0 -59 -23 -59 -46 0
-24 30 -16 40 11 9 24 30 35 30 15 0 -5 -3 -10 -7 -10 -5 0 -16 -14 -25 -30
-21 -37 -34 -38 -42 -4 -5 17 -12 24 -21 20 -9 -3 -15 1 -15 9 0 8 6 15 14 15
8 0 17 9 21 19 3 11 14 23 24 26 13 4 17 12 13 27 -3 14 -1 19 6 14 7 -4 12
-1 12 6 0 7 5 5 11 -6 8 -13 8 -20 0 -26z m330 13 c13 -15 12 -15 -8 -4 -24
12 -29 21 -14 21 5 0 15 -7 22 -17z m357 -5 c-3 -7 -13 -15 -23 -16 -15 -4
-16 -2 -4 12 17 19 32 21 27 4z m-1294 -50 c-3 -5 -12 -8 -20 -8 -8 0 -14 -5
-14 -11 0 -6 -7 -3 -16 5 -20 21 -30 21 -13 0 10 -13 10 -17 -2 -25 -17 -11
-21 -11 -37 -1 -21 14 -2 43 42 62 37 15 42 16 53 1 6 -9 9 -19 7 -23z m919
10 c-2 -5 -15 -8 -29 -8 -14 0 -22 -4 -19 -10 3 -5 -3 -10 -14 -10 -22 0 -29
26 -9 32 21 7 76 3 71 -4z m412 2 c4 -6 11 -7 17 -4 6 4 8 -1 3 -15 -4 -15 -3
-19 7 -16 15 6 43 -33 32 -43 -4 -4 -9 -1 -11 6 -8 21 -53 34 -69 21 -11 -9
-14 -8 -14 2 0 12 -2 12 -9 1 -7 -11 -9 -11 -14 1 -6 15 18 32 37 28 5 -1 6 5
3 14 -7 17 8 21 18 5z m-1155 -4 c0 -3 -4 -8 -10 -11 -5 -3 -10 -1 -10 4 0 6
5 11 10 11 6 0 10 -2 10 -4z m320 -39 c0 -5 -7 -4 -15 3 -8 7 -15 20 -15 29 1
13 3 13 15 -3 8 -11 15 -24 15 -29z m-286 18 c3 -9 -3 -19 -15 -25 -11 -6 -17
-15 -14 -21 9 -14 -23 -23 -39 -10 -11 9 -15 9 -18 0 -2 -7 -10 -9 -17 -5 -9
6 -9 11 0 22 7 8 7 14 1 14 -13 0 -33 -25 -27 -33 3 -4 2 -5 -2 -1 -4 3 -8 18
-8 33 -1 23 3 27 20 23 11 -3 25 -8 30 -12 15 -11 49 -3 60 14 12 20 21 20 29
1z m754 -4 c3 -8 -1 -12 -9 -9 -7 2 -15 10 -17 17 -3 8 1 12 9 9 7 -2 15 -10
17 -17z m202 -1 c0 -5 -4 -10 -10 -10 -5 0 -10 5 -10 10 0 6 5 10 10 10 6 0
10 -4 10 -10z m-1348 -27 c11 3 18 0 18 -10 0 -8 -4 -12 -9 -9 -5 4 -17 3 -26
0 -15 -6 -14 -9 6 -21 13 -8 17 -12 8 -9 -9 2 -27 -3 -39 -11 -22 -15 -22 -15
-15 16 5 26 4 30 -10 25 -9 -4 -14 -8 -12 -11 3 -2 1 -20 -3 -39 -7 -32 -6
-36 21 -50 16 -8 34 -12 39 -9 23 14 8 -4 -16 -20 -19 -12 -25 -13 -22 -4 3 8
-6 22 -19 32 -13 10 -21 23 -18 28 4 5 1 9 -6 9 -10 0 -10 3 -1 12 7 7 12 31
12 54 l0 43 37 -15 c20 -9 44 -13 55 -11z m222 7 c-6 -6 -15 -5 -24 1 -13 9
-12 10 3 5 9 -3 17 0 17 6 0 6 3 8 7 5 4 -4 2 -12 -3 -17z m711 10 c-3 -5 3
-10 14 -10 12 0 21 -4 21 -9 0 -13 -37 -2 -51 15 -9 11 -8 14 5 14 10 0 14 -4
11 -10z m-415 -13 c9 -7 25 -25 37 -40 12 -15 24 -28 27 -28 3 1 5 -2 4 -6 -2
-4 -13 -8 -25 -9 -22 -2 -27 14 -10 27 10 7 -31 35 -58 40 -10 2 -20 10 -23
17 -5 15 28 15 48 -1z m494 -6 c4 -5 -1 -8 -9 -7 -21 3 -31 16 -12 16 9 0 18
-4 21 -9z m261 0 c10 -18 -17 -23 -33 -7 -15 15 -15 16 5 16 12 0 24 -4 28 -9z
m-1210 -20 c-3 -6 -11 -11 -16 -11 -5 0 -4 6 3 14 14 16 24 13 13 -3z m392
-12 c-3 -10 -1 -22 4 -25 5 -3 9 -14 9 -25 0 -10 5 -19 10 -19 6 0 10 -4 10
-10 0 -5 -6 -7 -13 -4 -8 3 -19 -5 -25 -18 -7 -13 -11 -16 -8 -8 2 8 -4 24
-13 34 -15 18 -15 19 1 13 11 -4 18 1 21 14 4 14 0 19 -15 19 -14 0 -18 5 -14
16 5 12 2 15 -10 10 -8 -3 -20 -6 -26 -6 -6 0 -3 -11 6 -25 18 -28 20 -35 7
-35 -5 0 -12 11 -15 25 -4 16 -11 22 -20 19 -8 -3 -23 0 -33 6 -16 10 -16 11
-1 6 10 -3 20 -1 23 5 4 5 9 7 13 5 4 -2 23 4 42 13 40 20 54 17 47 -10z m174
18 c-1 -4 -1 -13 -1 -21 0 -8 -7 -13 -15 -12 -15 2 -17 9 -7 34 5 13 24 12 23
-1z m269 -2 c0 -1 -7 -8 -15 -15 -13 -10 -15 -9 -15 8 0 15 5 20 15 16 8 -4
15 -7 15 -9z m630 6 c0 -17 -18 -21 -24 -6 -3 9 0 15 9 15 8 0 15 -4 15 -9z
m-460 -17 c0 -8 -5 -12 -10 -9 -6 4 -8 11 -5 16 9 14 15 11 15 -7z m155 6 c3
-5 2 -10 -4 -10 -5 0 -13 5 -16 10 -3 6 -2 10 4 10 5 0 13 -4 16 -10z m-1031
-17 c-9 -7 -21 -10 -25 -7 -17 10 -9 19 16 19 22 0 23 -1 9 -12z m1046 -13 c0
-5 -5 -10 -11 -10 -5 0 -7 5 -4 10 3 6 8 10 11 10 2 0 4 -4 4 -10z m-1110 -19
c0 8 5 7 17 -2 9 -8 14 -9 11 -4 -4 6 3 12 14 12 19 2 19 1 3 -17 -21 -23 -44
-22 -70 3 -20 19 -20 20 3 8 17 -9 22 -9 22 0z m183 -5 c3 -8 -4 -24 -15 -36
l-21 -22 21 6 c11 4 23 2 27 -4 3 -5 -2 -10 -12 -10 -11 0 -23 -4 -28 -9 -6
-6 -11 3 -12 24 -2 20 3 40 13 49 19 19 20 20 27 2z m977 2 c0 -4 -4 -8 -9 -8
-6 0 -12 4 -15 8 -3 5 1 9 9 9 8 0 15 -4 15 -9z m137 -10 c-3 -8 -6 -5 -6 6
-1 11 2 17 5 13 3 -3 4 -12 1 -19z m365 0 c-6 -6 -15 -8 -19 -4 -4 4 -1 11 7
16 19 12 27 3 12 -12z m-521 -7 c3 -3 -2 -14 -12 -23 -18 -17 -19 -17 -19 6 0
13 -6 27 -12 30 -7 3 -2 3 12 0 14 -4 28 -9 31 -13z m-1469 -5 c7 4 8 2 4 -4
-11 -18 -26 -14 -25 6 0 10 3 12 6 4 2 -6 10 -9 15 -6z m53 4 c-3 -5 -14 -10
-23 -9 -14 0 -13 2 3 9 27 11 27 11 20 0z m935 0 c0 -5 -2 -10 -4 -10 -3 0 -8
5 -11 10 -3 6 -1 10 4 10 6 0 11 -4 11 -10z m630 -41 c0 -9 -6 -16 -12 -15
-26 4 -38 18 -34 39 3 12 5 24 5 26 2 12 41 -35 41 -50z m-1010 16 c0 5 2 6 5
3 3 -3 3 -13 -1 -22 -6 -15 -9 -15 -23 -3 -9 8 -29 18 -46 22 l-30 8 30 7 c20
4 36 2 48 -8 9 -8 17 -11 17 -7z m-197 -19 c18 -6 24 -26 7 -26 -5 0 -10 5
-10 11 0 5 -4 8 -9 5 -4 -3 -17 4 -27 16 -19 20 -19 21 1 10 11 -6 28 -13 38
-16z m418 14 c5 0 9 -4 9 -8 0 -14 -39 -8 -45 6 -4 10 0 12 11 8 8 -3 20 -6
25 -6z m119 0 c0 -5 -2 -10 -4 -10 -3 0 -8 5 -11 10 -3 6 -1 10 4 10 6 0 11
-4 11 -10z m1280 0 c0 -5 -7 -10 -16 -10 -8 0 -12 5 -9 10 3 6 10 10 16 10 5
0 9 -4 9 -10z m-1960 -25 c0 -13 -35 -27 -44 -17 -14 13 -4 27 19 28 14 1 25
-4 25 -11z m690 -6 c9 -5 -1 -8 -27 -6 -24 1 -45 7 -47 14 -5 13 46 8 74 -8z
m82 -44 c-8 -15 -10 -15 -23 1 -9 11 -9 15 -1 10 7 -4 12 -1 12 9 0 10 -5 13
-12 9 -7 -4 -4 2 7 13 20 20 20 20 23 -3 2 -13 -1 -31 -6 -39z m873 55 c-3 -5
-11 -10 -16 -10 -6 0 -7 5 -4 10 3 6 11 10 16 10 6 0 7 -4 4 -10z m360 0 c3
-5 1 -10 -4 -10 -6 0 -11 5 -11 10 0 6 2 10 4 10 3 0 8 -4 11 -10z m-1910 -16
c15 -15 15 -18 -1 -35 -9 -11 -21 -19 -26 -19 -14 0 -4 25 10 26 23 3 23 4 9
18 -7 8 -25 16 -38 19 -23 4 -23 4 3 6 15 0 34 -6 43 -15z m1180 6 c3 -5 1
-10 -4 -10 -6 0 -11 5 -11 10 0 6 2 10 4 10 3 0 8 -4 11 -10z m535 0 c0 -5 -4
-10 -9 -10 -6 0 -13 5 -16 10 -3 6 1 10 9 10 9 0 16 -4 16 -10z m-1320 -15
c-7 -8 -18 -15 -24 -14 -6 0 -5 3 3 6 11 5 11 7 0 14 -10 6 -7 9 10 9 20 0 21
-2 11 -15z m110 0 c11 -13 10 -14 -4 -9 -9 3 -16 10 -16 15 0 13 6 11 20 -6z
m358 -11 c4 -26 -19 -37 -52 -24 -13 5 -27 6 -30 3 -3 -4 -6 -1 -6 5 0 6 9 14
20 17 11 4 17 11 14 16 -4 7 5 9 22 7 21 -2 30 -9 32 -24z m942 11 c10 -12 10
-15 -2 -15 -8 0 -15 7 -15 15 0 8 1 15 2 15 2 0 8 -7 15 -15z m-503 -1 c-3 -3
-12 -4 -19 -1 -8 3 -5 6 6 6 11 1 17 -2 13 -5z m137 -10 c3 -8 2 -12 -4 -9 -6
3 -10 10 -10 16 0 14 7 11 14 -7z m-1794 -10 c0 -2 -9 -4 -20 -4 -11 0 -20 4
-20 9 0 5 9 7 20 4 11 -3 20 -7 20 -9z m975 6 c11 -5 16 -9 10 -10 -5 -1 -18
-3 -27 -5 -10 -2 -18 1 -18 7 0 6 -9 8 -20 5 -11 -3 -18 -1 -14 4 6 11 42 11
69 -1z m546 -2 c2 -16 -2 -42 -6 -46 -9 -10 -65 11 -65 24 0 9 4 13 9 10 5 -3
14 1 21 9 15 18 40 20 41 3z m384 2 c-3 -5 -12 -10 -18 -10 -7 0 -6 4 3 10 19
12 23 12 15 0z m-1177 -10 c1 0 2 -5 2 -11 0 -6 -10 -8 -22 -5 -13 3 -17 3
-10 0 6 -3 10 -10 6 -15 -3 -5 -18 -2 -35 6 -16 9 -27 20 -23 26 5 9 22 8 82
-1z m116 2 c3 -5 -8 -6 -25 -4 -16 2 -29 6 -29 8 0 8 49 4 54 -4z m483 -7 c0
-8 -4 -15 -8 -15 -4 0 -9 7 -13 15 -3 9 0 15 8 15 7 0 13 -7 13 -15z m-910
-10 c0 -8 -9 -15 -21 -15 -20 0 -20 0 0 15 10 8 19 15 20 15 0 0 1 -7 1 -15z
m1273 6 c0 -5 -7 -12 -16 -15 -14 -5 -15 -4 -4 9 14 17 20 19 20 6z m420 -1
c0 -5 -4 -10 -10 -10 -5 0 -10 5 -10 10 0 6 5 10 10 10 6 0 10 -4 10 -10z m70
-10 c8 -15 8 -20 -3 -20 -7 0 -13 9 -14 20 -1 11 0 20 2 20 2 0 9 -9 15 -20z
m-1700 0 c0 -5 -5 -10 -11 -10 -5 0 -7 5 -4 10 3 6 8 10 11 10 2 0 4 -4 4 -10z
m530 -10 c8 -16 8 -18 -4 -14 -17 6 -30 34 -16 34 5 0 14 -9 20 -20z m100 3
c3 -3 -8 -3 -25 -1 -18 2 -35 -3 -43 -12 -11 -13 -11 -11 -2 8 9 18 16 21 38
16 15 -4 29 -9 32 -11z m-276 -5 c-11 -17 -57 -29 -88 -22 -25 5 -27 8 -14 18
18 13 110 17 102 4z m-579 -26 c8 -19 15 -22 41 -17 38 7 87 -8 61 -18 -10 -4
-17 -3 -17 2 0 9 -61 2 -75 -9 -6 -5 -28 2 -50 16 -39 23 -34 35 6 14 24 -13
25 -3 2 23 -17 19 -17 19 2 16 11 -2 25 -14 30 -27z m359 12 c15 -14 16 -14
16 0 0 9 5 16 10 16 17 0 11 -29 -7 -38 -13 -6 -25 -2 -42 15 -18 18 -20 23
-8 23 8 0 23 -7 31 -16z m540 7 c3 -5 15 -7 26 -4 14 4 20 0 20 -11 0 -11 5
-15 13 -10 6 4 9 4 5 -1 -4 -4 -3 -14 3 -22 18 -21 -8 -17 -47 8 -21 12 -31
25 -27 32 5 8 2 8 -8 0 -13 -10 -16 -10 -16 2 0 16 22 20 31 6z m196 -1 c0 -5
-2 -10 -4 -10 -3 0 -8 5 -11 10 -3 6 -1 10 4 10 6 0 11 -4 11 -10z m60 0 c0
-5 -2 -10 -4 -10 -3 0 -8 5 -11 10 -3 6 -1 10 4 10 6 0 11 -4 11 -10z m930 1
c0 -5 8 -8 17 -7 10 0 19 -7 21 -16 2 -10 -1 -18 -7 -18 -6 0 -11 7 -11 16 0
8 -4 13 -9 10 -5 -3 -14 1 -21 9 -9 10 -9 15 -1 15 6 0 11 -4 11 -9z m-1890
-53 c0 -18 -37 -44 -48 -34 -3 3 -1 6 5 6 7 0 9 10 5 23 -5 20 -4 21 13 7 17
-14 18 -14 7 7 -7 12 -12 27 -12 34 0 19 29 -23 30 -43z m-515 32 c3 -5 -1
-10 -10 -10 -9 0 -13 5 -10 10 3 6 8 10 10 10 2 0 7 -4 10 -10z m1424 -11 c-7
-4 -17 -5 -22 -2 -5 3 -3 9 4 14 7 4 17 5 22 2 5 -3 3 -9 -4 -14z m851 13 c0
-5 -7 -17 -15 -28 -8 -10 -15 -37 -15 -59 0 -52 -14 -75 -32 -56 -10 10 -10
12 0 7 20 -11 15 41 -5 54 -16 10 -15 11 5 7 20 -5 22 -2 22 39 0 37 3 44 20
44 11 0 20 -4 20 -8z m54 -7 c3 -9 0 -15 -8 -15 -7 0 -19 7 -26 15 -10 12 -9
15 8 15 11 0 22 -7 26 -15z m-1686 -9 c-10 -7 -14 -16 -10 -20 4 -5 -2 -6 -13
-4 -11 1 -20 -2 -20 -9 0 -22 -15 -26 -15 -4 0 15 10 26 33 36 40 18 47 18 25
1z m265 -21 c-15 -19 -31 -35 -35 -35 -7 0 11 25 40 56 26 27 22 14 -5 -21z
m112 25 c8 -13 -5 -13 -25 0 -13 8 -13 10 2 10 9 0 20 -4 23 -10z m164 -8 c10
-10 4 -11 -31 -6 -57 9 -68 20 -19 19 21 0 44 -6 50 -13z m136 8 c3 -5 -1 -10
-10 -10 -9 0 -13 5 -10 10 3 6 8 10 10 10 2 0 7 -4 10 -10z m275 1 c0 -13 -28
-22 -35 -11 -3 4 1 11 7 13 20 8 28 8 28 -2z m280 0 c0 -5 -7 -12 -16 -15 -14
-5 -15 -4 -4 9 14 17 20 19 20 6z m-1077 -7 c12 -4 12 -10 3 -30 -14 -30 -22
-30 -29 -2 -9 32 0 43 26 32z m747 -4 c0 -5 -2 -10 -4 -10 -3 0 -8 5 -11 10
-3 6 -1 10 4 10 6 0 11 -4 11 -10z m276 -5 c-3 -8 0 -15 7 -16 7 0 2 -4 -10
-9 -35 -14 -27 -30 12 -28 19 1 38 -2 42 -5 3 -4 -5 -7 -18 -7 -31 0 -55 -15
-40 -24 6 -4 11 -2 11 4 0 6 5 8 11 4 17 -10 -10 -24 -32 -16 -10 4 -17 9 -17
12 4 15 -25 50 -35 43 -7 -4 -18 -8 -26 -10 -8 -1 -17 -6 -20 -11 -3 -5 -15
-6 -26 -2 -16 6 -11 10 28 20 26 7 47 17 47 24 0 6 12 12 27 13 15 0 29 6 31
12 2 6 6 11 9 11 3 0 3 -7 -1 -15z m359 5 c-3 -5 -16 -15 -28 -21 -21 -10 -21
-9 2 10 25 23 36 27 26 11z m-809 -35 c-7 -18 -26 -20 -26 -2 0 18 24 41 28
27 2 -6 1 -17 -2 -25z m721 -1 c-9 -9 -28 6 -21 18 4 6 10 6 17 -1 6 -6 8 -13
4 -17z m-1127 1 c-27 -14 -36 -13 -25 4 3 6 16 11 28 11 21 -1 21 -1 -3 -15z
m607 -7 c13 -12 23 -16 23 -10 0 6 9 10 19 9 13 -1 17 -5 12 -12 -5 -5 -10
-19 -12 -29 -4 -18 -5 -19 -21 -3 -9 9 -24 17 -32 17 -9 0 -16 3 -17 8 0 4 -2
15 -4 25 -4 23 4 22 32 -5z m640 16 c-3 -3 -12 -4 -19 -1 -8 3 -5 6 6 6 11 1
17 -2 13 -5z m194 -16 c13 -9 19 -17 13 -17 -6 -1 -17 5 -24 13 -6 8 -17 13
-25 10 -7 -3 -16 -1 -20 5 -9 16 28 8 56 -11z m-1851 -11 c0 -7 -4 -6 -10 3
-6 10 -10 11 -10 3 0 -7 -8 -13 -17 -13 -15 0 -16 -2 -3 -10 13 -8 13 -10 -1
-10 -22 0 -45 -29 -41 -52 2 -13 -3 -18 -20 -18 -13 0 -18 4 -12 8 17 11 24
40 11 46 -7 2 -5 5 5 5 9 1 30 15 47 32 29 29 51 32 51 6z m640 14 c0 -6 -4
-12 -8 -15 -5 -3 -9 1 -9 9 0 8 4 15 9 15 4 0 8 -4 8 -9z m210 -1 c0 -5 -2
-10 -4 -10 -3 0 -8 5 -11 10 -3 6 -1 10 4 10 6 0 11 -4 11 -10z m90 -25 c0 -8
-7 -15 -15 -15 -8 0 -15 7 -15 15 0 8 7 15 15 15 8 0 15 -7 15 -15z m-916 -14
c3 -5 -1 -11 -9 -14 -9 -4 -12 -1 -8 9 6 16 10 17 17 5z m366 -12 c-7 -11 -14
-18 -17 -15 -3 3 0 12 7 21 18 21 23 19 10 -6z m806 1 c8 0 14 -5 14 -11 0 -6
-6 -9 -13 -6 -7 3 -19 -4 -25 -14 -21 -33 -32 -20 -15 17 10 19 19 31 21 25 2
-6 10 -11 18 -11z m-754 -8 c4 -15 1 -18 -20 -14 -24 5 -24 6 -7 18 23 17 22
18 27 -4z m372 3 c31 -7 28 -12 -8 -13 -21 -1 -39 5 -48 15 -12 15 -10 16 12
9 14 -4 33 -9 44 -11z m196 6 c0 -6 -4 -13 -10 -16 -5 -3 -10 1 -10 9 0 9 5
16 10 16 6 0 10 -4 10 -9z m740 -37 c0 -8 -4 -14 -10 -14 -5 0 -7 7 -4 15 4
10 0 15 -11 15 -9 0 -13 5 -10 10 9 14 35 -7 35 -26z m-1090 16 c0 -5 -4 -10
-9 -10 -6 0 -13 5 -16 10 -3 6 1 10 9 10 9 0 16 -4 16 -10z m896 -4 c36 7 45
-5 20 -25 -10 -8 -21 -9 -33 -3 -10 5 -26 8 -35 7 -21 -4 -22 1 -5 19 6 8 14
10 15 5 2 -5 19 -7 38 -3z m-306 -11 c0 -1 -9 -5 -19 -8 -13 -3 -18 -1 -14 9
4 10 33 10 33 -1z m-1275 -5 c-26 -11 -35 -12 -35 -2 0 4 12 8 28 9 23 1 24 1
7 -7z m415 -24 c0 -3 -6 -3 -13 0 -9 3 -12 -7 -10 -38 l2 -43 -9 40 c-5 22 -6
48 -4 58 5 15 7 15 20 3 8 -8 14 -17 14 -20z m380 30 c0 -3 -4 -8 -10 -11 -5
-3 -10 -1 -10 4 0 6 5 11 10 11 6 0 10 -2 10 -4z m549 -20 c22 -24 22 -24 3
-19 -11 3 -28 14 -38 24 -27 30 7 25 35 -5z m461 14 c0 -5 -2 -10 -4 -10 -3 0
-8 5 -11 10 -3 6 -1 10 4 10 6 0 11 -4 11 -10z m-1657 -7 c-7 -2 -19 -2 -25 0
-7 3 -2 5 12 5 14 0 19 -2 13 -5z m352 -23 c-10 -11 -22 -20 -27 -20 -15 0
-41 30 -33 38 4 4 10 1 12 -5 6 -18 28 -16 43 2 7 9 15 13 18 10 3 -3 -3 -14
-13 -25z m61 19 c10 -17 -13 -36 -27 -22 -12 12 -4 33 11 33 5 0 12 -5 16 -11z
m392 -10 c-2 -6 -8 -10 -13 -10 -5 0 -11 4 -13 10 -2 6 4 11 13 11 9 0 15 -5
13 -11z m-1084 -15 c3 -8 2 -12 -4 -9 -6 3 -10 -1 -10 -10 0 -9 -5 -13 -10
-10 -7 4 -7 13 0 26 13 23 16 24 24 3z m297 -25 c15 -31 18 -44 9 -53 -8 -8
-15 -6 -26 8 -19 26 -18 42 2 25 15 -12 15 -10 0 24 -20 50 -12 47 15 -4z
m846 23 c7 -4 9 -13 5 -19 -6 -9 -11 -6 -20 7 -13 21 -6 26 15 12z m643 -7 c0
-8 -2 -15 -4 -15 -2 0 -6 7 -10 15 -3 8 -1 15 4 15 6 0 10 -7 10 -15z m-1986
-6 c-3 -5 0 -9 6 -9 6 0 8 -5 4 -12 -5 -8 -2 -9 10 -5 10 4 15 3 11 -3 -6 -10
-64 -2 -79 10 -14 13 2 28 29 28 13 0 22 -4 19 -9z m601 -19 c-16 -17 -43 -37
-60 -45 -24 -12 -20 -6 20 30 57 51 84 61 40 15z m573 19 c-2 -6 -6 -9 -9 -7
-3 2 -13 -3 -22 -11 -15 -12 -17 -11 -17 8 0 16 6 21 26 21 14 0 24 -5 22 -11z
m902 1 c0 -5 -5 -10 -11 -10 -5 0 -7 5 -4 10 3 6 8 10 11 10 2 0 4 -4 4 -10z
m-1370 -20 c0 -5 -4 -10 -10 -10 -5 0 -10 5 -10 10 0 6 5 10 10 10 6 0 10 -4
10 -10z m184 -14 c-7 -17 -34 -22 -34 -6 0 6 7 10 15 10 8 0 15 5 15 12 0 6 2
9 5 6 3 -3 3 -13 -1 -22z m221 14 c3 -5 -1 -10 -10 -10 -9 0 -13 5 -10 10 3 6
8 10 10 10 2 0 7 -4 10 -10z m126 -7 c8 -8 4 -11 -15 -10 -14 1 -26 7 -26 14
0 14 26 11 41 -4z m-934 -15 c2 -17 0 -19 -7 -8 -5 8 -6 18 -4 22 8 12 10 10
11 -14z m960 -15 c-11 -11 -17 -13 -17 -5 0 7 4 12 10 12 5 0 7 8 3 18 -5 14
-3 15 8 4 11 -10 10 -15 -4 -29z m53 28 c0 -6 -4 -13 -10 -16 -5 -3 -10 1 -10
9 0 9 5 16 10 16 6 0 10 -4 10 -9z m520 -5 c0 -11 -19 -15 -25 -6 -3 5 1 10 9
10 9 0 16 -2 16 -4z m-446 -21 c11 -8 15 -15 10 -15 -6 0 -19 7 -30 15 -10 8
-14 14 -9 14 6 0 19 -6 29 -14z m-470 -10 c3 -9 0 -15 -9 -15 -8 0 -15 7 -15
15 0 8 4 15 9 15 5 0 11 -7 15 -15z m-881 -12 c-7 -2 -9 -11 -6 -19 3 -9 -1
-14 -12 -14 -9 0 -13 5 -9 11 4 7 0 9 -14 5 -13 -4 -22 -1 -25 8 -4 10 -1 13
9 9 7 -3 14 -1 14 5 0 5 12 7 28 4 15 -3 22 -7 15 -9z m131 2 c18 -14 18 -15
2 -15 -9 0 -24 7 -32 15 -21 20 4 20 30 0z m197 -3 c-7 -2 -18 1 -23 6 -8 8
-4 9 13 5 13 -4 18 -8 10 -11z m454 8 c3 -6 -1 -7 -9 -4 -18 7 -21 14 -7 14 6
0 13 -4 16 -10z m688 -29 c-4 -15 1 -20 23 -23 15 -2 29 -10 31 -18 4 -12 3
-12 -5 -2 -7 11 -18 11 -46 4 -25 -7 -34 -7 -30 0 4 6 8 20 9 32 4 36 5 37 14
32 5 -3 7 -15 4 -25z m-1253 -10 c0 -24 -19 -40 -41 -34 -24 7 -25 39 -2 51
22 13 43 4 43 -17z m1130 19 c0 -5 -19 -10 -42 -9 -33 0 -38 2 -23 9 28 12 65
12 65 0z m52 -26 c9 -3 19 -13 23 -21 4 -12 2 -13 -7 -7 -7 6 -26 11 -43 13
-16 2 -32 5 -35 8 -7 7 24 23 35 18 6 -3 18 -8 27 -11z m238 6 c0 -5 -7 -10
-15 -10 -8 0 -15 5 -15 10 0 6 7 10 15 10 8 0 15 -4 15 -10z m-1546 -15 c3 -9
-1 -18 -9 -21 -10 -4 -15 -20 -15 -44 0 -53 8 -69 31 -63 11 3 21 -1 25 -11 3
-9 10 -14 14 -11 5 3 11 1 15 -5 3 -5 -1 -10 -9 -10 -8 0 -17 4 -21 9 -3 5
-23 8 -45 6 l-40 -4 0 64 c0 47 4 64 15 69 8 3 15 12 15 21 0 20 16 19 24 0z
m563 -7 c-3 -8 -6 -5 -6 6 -1 11 2 17 5 13 3 -3 4 -12 1 -19z m86 10 c-2 -5
-13 -8 -23 -8 -10 0 -21 3 -23 8 -3 4 8 7 23 7 15 0 26 -3 23 -7z m187 -25 c0
-7 -39 17 -46 28 -3 6 5 3 20 -6 14 -10 26 -19 26 -22z m70 23 c0 -3 -4 -8
-10 -11 -5 -3 -10 -1 -10 4 0 6 5 11 10 11 6 0 10 -2 10 -4z m50 -6 c0 -5 -2
-10 -4 -10 -3 0 -8 5 -11 10 -3 6 -1 10 4 10 6 0 11 -4 11 -10z m230 -10 c0
-5 -5 -10 -11 -10 -5 0 -7 5 -4 10 3 6 8 10 11 10 2 0 4 -4 4 -10z m-1033 -6
c-3 -3 -12 -4 -19 -1 -8 3 -5 6 6 6 11 1 17 -2 13 -5z m59 -19 c10 -8 14 -15
7 -15 -19 0 -43 11 -43 21 0 13 14 11 36 -6z m348 -1 c3 -8 2 -12 -4 -9 -6 3
-10 10 -10 16 0 14 7 11 14 -7z m401 -8 c-11 -8 -26 -11 -34 -8 -11 4 -7 9 14
18 36 15 46 9 20 -10z m341 15 c-4 -5 0 -12 6 -15 7 -3 0 -4 -17 0 -45 8 -55
24 -16 24 18 0 30 -4 27 -9z m-1416 -9 c0 -17 -32 -72 -41 -72 -6 0 -7 -5 -4
-10 4 -6 10 -8 15 -5 20 12 16 -23 -6 -48 -31 -36 -41 -34 -14 3 l21 30 -29 0
c-37 0 -46 -10 -24 -26 9 -7 12 -14 6 -14 -20 0 -38 29 -26 43 6 6 14 28 19
47 8 30 13 35 36 32 19 -2 27 2 27 13 0 8 5 15 10 15 6 0 10 -4 10 -8z m997
-12 c11 -16 10 -18 -1 -14 -15 6 -30 34 -18 34 4 0 13 -9 19 -20z m528 -13 c7
-7 6 -8 -2 -3 -6 3 -13 -1 -15 -10 -2 -13 -8 -10 -28 11 l-25 27 30 -7 c17 -4
35 -12 40 -18z m-437 0 c-16 -6 -28 -14 -28 -19 0 -4 -7 -8 -15 -8 -9 0 -12 6
-9 15 4 8 9 13 13 11 3 -2 15 0 26 5 11 4 25 7 30 7 6 0 -2 -5 -17 -11z m302
0 c0 -15 54 -70 67 -67 4 0 9 -6 11 -14 2 -11 -2 -14 -12 -10 -12 4 -16 0 -16
-15 0 -25 -8 -26 -39 -5 -18 13 -22 23 -18 48 3 20 -1 35 -11 42 -8 6 -12 16
-8 22 10 16 26 15 26 -1z m-1097 -6 c14 -2 7 -21 -8 -21 -19 0 -15 -20 9 -40
18 -16 18 -17 -7 -44 -15 -16 -27 -22 -29 -15 -3 9 -9 9 -27 0 -21 -11 -22
-11 -12 7 7 13 7 23 -2 32 -9 10 -9 11 0 6 6 -3 14 -2 18 4 3 5 -1 10 -9 10
-10 0 -16 9 -16 25 0 14 5 25 11 25 5 0 8 4 5 8 -4 7 36 9 67 3z m354 3 c-3
-3 -12 -4 -19 -1 -8 3 -5 6 6 6 11 1 17 -2 13 -5z m1343 0 c0 -8 -19 -13 -24
-6 -3 5 1 9 9 9 8 0 15 -2 15 -3z m-1130 -8 c0 -2 -9 -6 -20 -9 -11 -3 -20 -1
-20 4 0 5 9 9 20 9 11 0 20 -2 20 -4z m889 -35 c-2 -6 -10 2 -17 17 -11 25
-11 25 4 10 9 -9 15 -21 13 -27z m-1289 19 c8 -5 11 -12 8 -16 -10 -9 -38 3
-38 16 0 12 10 13 30 0z m1105 -9 c3 -11 3 -31 -1 -45 -7 -30 -46 -36 -71 -11
-21 22 -10 29 26 17 41 -14 40 -5 -1 14 -20 9 -24 13 -10 10 17 -3 22 0 22 15
0 25 27 25 35 0z m-903 -30 c2 -17 1 -28 -4 -25 -4 3 -8 -9 -8 -25 0 -35 1
-35 -34 -21 -31 11 -35 53 -9 82 25 28 50 23 55 -11z m15 7 c-3 -8 -6 -5 -6 6
-1 11 2 17 5 13 3 -3 4 -12 1 -19z m1321 -3 c-3 -3 -9 2 -12 12 -6 14 -5 15 5
6 7 -7 10 -15 7 -18z m-1627 -48 c-8 -8 -15 -7 -23 2 -11 11 -10 13 5 8 9 -4
17 -2 17 3 0 9 -22 14 -42 11 -21 -3 0 25 22 29 21 4 26 1 28 -19 2 -13 -1
-28 -7 -34z m683 35 c-3 -30 -5 -32 -24 -20 -27 17 -26 39 3 34 12 -1 22 -8
21 -14z m-1192 -22 c0 -11 1 -24 2 -30 1 -5 -3 -10 -9 -11 -5 -1 -17 -5 -26
-10 -14 -7 -17 -4 -15 16 0 16 6 23 14 20 11 -4 16 7 13 28 0 4 4 7 9 7 6 0
11 -9 12 -20z m1033 10 c3 -5 1 -10 -4 -10 -6 0 -11 5 -11 10 0 6 2 10 4 10 3
0 8 -4 11 -10z m1140 0 c3 -5 -1 -10 -9 -10 -9 0 -16 5 -16 10 0 6 4 10 9 10
6 0 13 -4 16 -10z m-1195 -28 c0 -13 -12 -22 -22 -16 -10 6 -1 24 13 24 5 0 9
-4 9 -8z m1074 -5 c28 -15 24 -27 -9 -27 -28 0 -52 25 -33 33 7 3 14 6 14 6 1
1 13 -5 28 -12z m-994 -12 c0 -8 -2 -15 -4 -15 -2 0 -6 7 -10 15 -3 8 -1 15 4
15 6 0 10 -7 10 -15z m934 -1 c10 -26 7 -44 -8 -44 -20 0 -29 16 -21 40 8 24
21 26 29 4z m-1877 -41 c-5 -12 -16 -24 -24 -27 -8 -3 -12 -2 -10 2 3 4 1 16
-3 27 -9 25 17 48 36 31 8 -8 8 -17 1 -33z m68 37 c3 -5 13 -6 23 -3 15 6 15
5 2 -8 -9 -9 -27 -21 -40 -28 l-25 -12 24 19 c16 13 20 21 12 26 -6 4 -16 4
-23 0 -7 -4 -8 -3 -4 4 9 14 23 15 31 2z m1125 0 c0 -5 -5 -10 -11 -10 -5 0
-7 5 -4 10 3 6 8 10 11 10 2 0 4 -4 4 -10z m-60 -19 c17 -33 -14 -76 -47 -64
-13 5 -18 65 -6 76 13 14 43 7 53 -12z m-910 5 c0 -3 -4 -8 -10 -11 -5 -3 -10
-1 -10 4 0 6 5 11 10 11 6 0 10 -2 10 -4z m770 0 c0 -2 -7 -9 -15 -16 -13 -11
-14 -10 -9 4 5 14 24 23 24 12z m36 -34 c-4 -3 -12 0 -19 7 -9 9 -9 14 3 21
11 7 16 5 18 -6 2 -9 1 -18 -2 -22z m-1132 13 c3 -9 -3 -19 -14 -25 -17 -9
-20 -7 -20 8 0 32 23 44 34 17z m704 4 c-2 -6 -8 -10 -13 -10 -5 0 -11 4 -13
10 -2 6 4 11 13 11 9 0 15 -5 13 -11z m-863 -9 c3 -5 2 -10 -4 -10 -5 0 -13 5
-16 10 -3 6 -2 10 4 10 5 0 13 -4 16 -10z m-58 -12 c-2 -7 3 -21 11 -31 15
-17 15 -17 -10 -8 -21 8 -29 6 -40 -6 -11 -15 -11 -16 5 -10 11 4 17 1 17 -9
0 -11 -10 -14 -40 -12 -45 3 -46 5 -23 38 23 34 35 41 50 28 9 -7 14 -6 19 6
7 19 18 22 11 4z m548 2 c-3 -5 -13 -10 -21 -10 -8 0 -12 5 -9 10 3 6 13 10
21 10 8 0 12 -4 9 -10z m1480 0 c3 -5 1 -10 -4 -10 -6 0 -11 5 -11 10 0 6 2
10 4 10 3 0 8 -4 11 -10z m-1765 -27 c0 -20 -23 -11 -26 9 -1 11 3 15 12 11 8
-3 14 -12 14 -20z m744 -5 c-3 -5 -12 -4 -20 3 -7 6 -11 15 -8 21 3 5 12 4 20
-3 7 -6 11 -15 8 -21z m1003 -4 c-9 -9 -28 6 -21 18 4 6 10 6 17 -1 6 -6 8
-13 4 -17z m118 16 c3 -5 1 -10 -4 -10 -6 0 -11 5 -11 10 0 6 2 10 4 10 3 0 8
-4 11 -10z m-1781 -32 c-3 -4 -11 -8 -18 -8 -8 0 -19 -7 -26 -15 -10 -12 -15
-13 -21 -3 -5 8 4 20 24 34 21 14 34 18 39 11 4 -6 4 -15 2 -19z m144 20 c-6
-18 -25 -21 -25 -3 0 8 7 15 15 15 7 0 12 -5 10 -12z m632 2 c0 -5 -4 -10 -10
-10 -5 0 -10 5 -10 10 0 6 5 10 10 10 6 0 10 -4 10 -10z m930 -15 c0 -16 -6
-25 -15 -25 -28 0 -18 40 13 49 1 1 2 -10 2 -24z m-1902 6 c10 -6 10 -10 -1
-20 -12 -9 -16 -7 -20 9 -5 21 0 25 21 11z m752 2 c0 -5 -5 -15 -10 -23 -7
-11 -12 -12 -21 -3 -6 6 -8 16 -5 22 8 12 36 15 36 4z m1066 -30 c7 -28 -7
-43 -43 -43 -26 0 -42 42 -24 64 18 21 60 8 67 -21z m334 11 c0 -8 -7 -14 -15
-14 -17 0 -18 2 -9 24 7 18 24 12 24 -10z m-1110 -15 c-7 -11 -14 -18 -17 -15
-3 3 0 12 7 21 18 21 23 19 10 -6z m-740 1 c0 -5 -6 -10 -14 -10 -8 0 -18 5
-21 10 -3 6 3 10 14 10 12 0 21 -4 21 -10z m65 0 c-3 -5 -10 -10 -16 -10 -5 0
-9 5 -9 10 0 6 7 10 16 10 8 0 12 -4 9 -10z m273 -7 c5 -18 -10 -16 -34 2 -18
15 -18 15 5 13 14 -2 26 -9 29 -15z m209 11 c-3 -3 -12 -4 -19 -1 -8 3 -5 6 6
6 11 1 17 -2 13 -5z m339 -11 c-2 -9 -8 -19 -13 -20 -17 -6 -27 18 -12 28 21
13 28 11 25 -8z m814 -17 c0 -11 -5 -28 -10 -36 -9 -13 -12 -13 -21 3 -5 9
-16 17 -24 17 -23 0 -28 20 -10 34 26 19 65 8 65 -18z m-2116 16 c8 -13 -11
-35 -23 -28 -6 4 -11 3 -11 -3 0 -12 -50 -9 -51 3 -1 20 74 45 85 28z m126
-23 c0 -12 -17 -11 -25 1 -4 6 -11 7 -17 4 -6 -4 -8 -2 -5 4 8 12 47 4 47 -9z
m380 5 c0 -8 -5 -12 -10 -9 -6 4 -8 11 -5 16 9 14 15 11 15 -7z m130 -3 c0 -6
-4 -13 -10 -16 -5 -3 -10 1 -10 9 0 9 5 16 10 16 6 0 10 -4 10 -9z m335 -59
c-6 -15 -8 -15 -16 3 -7 15 -7 12 -3 -12 8 -46 -1 -56 -37 -38 -23 13 -29 22
-29 50 0 31 3 35 35 41 19 3 35 11 36 18 0 6 5 -2 11 -17 5 -15 7 -35 3 -45z
m-924 45 c-1 -4 -1 -14 -1 -22 0 -12 -5 -13 -27 -4 -19 7 -29 7 -31 0 -4 -13
-22 -4 -22 11 0 6 12 8 30 5 23 -5 30 -3 30 9 0 9 5 14 11 12 6 -2 10 -7 10
-11z m361 -7 c14 -13 29 -18 42 -14 17 4 18 3 6 -5 -8 -6 -25 -11 -37 -11 -12
0 -27 -8 -32 -17 -8 -14 -10 -9 -9 25 1 23 3 42 5 42 2 0 14 -9 25 -20z m308
0 c0 -5 -5 -10 -11 -10 -5 0 -7 5 -4 10 3 6 8 10 11 10 2 0 4 -4 4 -10z m84
-6 c28 -27 17 -59 -21 -61 -13 -1 -23 3 -23 8 0 6 4 8 9 4 5 -3 12 -1 16 5 7
11 -4 13 -48 10 -28 -2 -28 -2 -12 24 20 30 55 34 79 10z m268 -8 c20 -15 19
-15 -18 -10 -53 8 -64 12 -64 23 0 14 56 5 82 -13z m281 17 c-7 -2 -19 -2 -25
0 -7 3 -2 5 12 5 14 0 19 -2 13 -5z m807 -14 c0 -6 -4 -7 -10 -4 -5 3 -10 11
-10 16 0 6 5 7 10 4 6 -3 10 -11 10 -16z m-855 -19 c11 -21 13 -36 6 -48 -6
-11 -6 -24 0 -33 5 -7 9 -20 9 -28 0 -10 -6 -9 -27 4 -16 10 -34 25 -41 33
-10 14 -10 18 4 22 10 4 18 14 20 23 2 16 -7 21 -33 18 -21 -3 -15 15 10 27
32 16 35 15 52 -18z m755 20 c0 -5 -4 -10 -10 -10 -5 0 -10 5 -10 10 0 6 5 10
10 10 6 0 10 -4 10 -10z m-1215 -10 c-3 -5 -1 -10 4 -10 6 0 11 -4 11 -10 0
-5 -7 -10 -15 -10 -15 0 -21 21 -8 33 10 10 15 8 8 -3z m165 -47 c0 -9 -7 -25
-16 -34 -14 -16 -15 -23 -4 -49 11 -26 11 -33 -1 -44 -22 -20 -68 -36 -74 -26
-3 4 1 11 7 13 7 3 -3 6 -22 8 -25 1 -28 3 -12 6 12 2 22 8 22 13 0 15 -37 31
-54 24 -17 -7 -22 -44 -6 -44 23 0 8 -18 -19 -23 -26 -6 -30 -12 -36 -51 -7
-41 -9 -44 -23 -30 -9 9 -17 32 -19 51 -3 31 -2 33 16 24 21 -12 35 7 25 33
-3 8 -1 17 5 20 6 4 8 13 4 21 -4 12 6 15 50 15 36 0 59 5 67 15 7 8 23 15 36
15 18 0 24 5 24 23 0 13 3 27 7 30 12 12 23 7 23 -10z m145 7 c-3 -5 -1 -10 4
-10 6 0 11 -4 11 -10 0 -15 -26 -12 -39 4 -9 11 -9 15 1 19 21 9 30 8 23 -3z
m-665 -39 c0 -6 -4 -13 -10 -16 -5 -3 -10 1 -10 9 0 9 5 16 10 16 6 0 10 -4
10 -9z m720 0 c0 -5 -7 -12 -16 -15 -24 -9 -28 -7 -14 9 14 17 30 20 30 6z
m-147 -16 c4 -6 10 -5 16 3 7 11 9 11 14 -2 3 -8 -2 -25 -12 -37 -13 -17 -24
-20 -44 -15 -26 6 -44 37 -32 56 7 12 47 9 58 -5z m-2 -148 c-1 -12 -15 -9
-19 4 -3 6 1 10 8 8 6 -3 11 -8 11 -12z m188 -233 c-6 -8 -18 -14 -25 -14 -11
0 -11 5 -2 25 9 19 14 22 25 14 10 -9 10 -15 2 -25z"/>
<path d="M1060 1909 c0 -5 5 -7 10 -4 6 3 10 8 10 11 0 2 -4 4 -10 4 -5 0 -10
-5 -10 -11z"/>
<path d="M990 1255 c0 -8 2 -15 4 -15 2 0 6 7 10 15 3 8 1 15 -4 15 -6 0 -10
-7 -10 -15z"/>
<path d="M2583 2259 c-14 -6 -12 -8 10 -8 30 -1 35 -12 12 -31 -10 -9 -15 -9
-15 -1 0 6 -6 11 -14 11 -20 0 -14 -22 13 -49 14 -14 22 -18 19 -9 -4 8 -2 21
2 29 14 22 25 -18 12 -46 -9 -20 -9 -23 3 -18 9 3 15 -1 15 -11 0 -25 27 -8
39 25 9 27 13 29 62 29 52 0 52 0 34 20 -13 14 -22 17 -29 10 -16 -16 -26 -12
-26 10 0 18 -3 19 -20 10 -17 -9 -20 -8 -20 12 0 21 -1 21 -14 3 -13 -18 -14
-18 -20 2 -7 22 -27 26 -63 12z m86 -101 c-8 -14 -14 -18 -17 -10 -4 13 17 46
25 38 3 -2 -1 -15 -8 -28z"/>
<path d="M555 2240 c-3 -5 -1 -10 4 -10 6 0 11 5 11 10 0 6 -2 10 -4 10 -3 0
-8 -4 -11 -10z"/>
<path d="M495 2230 c3 -5 8 -10 11 -10 2 0 4 5 4 10 0 6 -5 10 -11 10 -5 0 -7
-4 -4 -10z"/>
<path d="M744 2216 c-3 -9 -12 -12 -21 -9 -11 4 -14 2 -9 -5 4 -7 1 -12 -8
-12 -9 0 -16 -2 -16 -4 0 -2 -2 -11 -5 -18 -4 -10 3 -14 26 -14 20 1 34 -5 37
-14 5 -13 3 -13 -11 -1 -10 8 -17 9 -17 3 0 -18 20 -24 36 -11 10 8 11 16 5
22 -7 7 -7 16 0 29 5 10 7 22 4 27 -3 5 3 12 12 14 14 4 12 5 -5 6 -12 0 -25
-5 -28 -13z"/>
<path d="M1827 2213 c-4 -3 -7 -11 -7 -17 0 -6 5 -5 12 2 6 6 9 14 7 17 -3 3
-9 2 -12 -2z"/>
<path d="M784 2195 c-9 -22 1 -29 15 -11 8 10 9 16 1 21 -5 3 -13 -1 -16 -10z"/>
<path d="M557 2183 c-12 -12 -7 -22 8 -17 8 4 15 10 15 15 0 11 -14 12 -23 2z"/>
<path d="M1580 2179 c0 -14 42 -55 64 -63 16 -5 17 -4 6 9 -7 8 -17 12 -23 8
-7 -4 -8 0 -4 11 4 10 7 20 7 22 0 3 5 2 10 -1 6 -3 10 -1 10 4 0 6 -3 11 -7
12 -5 0 -20 2 -35 4 -16 2 -28 -1 -28 -6z"/>
<path d="M1238 2163 c7 -3 16 -2 19 1 4 3 -2 6 -13 5 -11 0 -14 -3 -6 -6z"/>
<path d="M1970 2160 c-9 -6 -10 -10 -3 -10 6 0 15 5 18 10 8 12 4 12 -15 0z"/>
<path d="M635 2150 c-3 -5 -1 -10 4 -10 6 0 11 5 11 10 0 6 -2 10 -4 10 -3 0
-8 -4 -11 -10z"/>
<path d="M570 2141 c0 -6 4 -13 10 -16 6 -3 7 1 4 9 -7 18 -14 21 -14 7z"/>
<path d="M1245 2140 c-3 -5 -1 -10 4 -10 6 0 11 5 11 10 0 6 -2 10 -4 10 -3 0
-8 -4 -11 -10z"/>
<path d="M2305 2130 c-3 -5 -1 -10 4 -10 6 0 11 5 11 10 0 6 -2 10 -4 10 -3 0
-8 -4 -11 -10z"/>
<path d="M2745 2120 c10 -11 20 -20 22 -20 2 0 -2 9 -9 20 -7 11 -17 20 -22
20 -5 0 -1 -9 9 -20z"/>
<path d="M1370 2090 c0 -13 5 -18 15 -14 12 5 13 10 4 20 -15 19 -19 18 -19
-6z"/>
<path d="M1333 2068 c-19 -24 -24 -38 -15 -38 5 0 14 11 20 25 13 27 10 32 -5
13z"/>
<path d="M325 1508 c-4 -9 -3 -23 1 -29 4 -7 -6 -3 -22 8 -27 19 -31 20 -49 6
-12 -10 -14 -14 -5 -10 9 2 24 -1 34 -8 17 -13 17 -14 -1 -33 -21 -21 -27 -42
-14 -42 5 0 16 -3 25 -6 11 -4 16 -1 16 10 0 23 17 20 23 -4 3 -11 14 -20 25
-20 11 0 27 -11 36 -25 9 -14 22 -25 29 -25 8 0 9 3 1 8 -15 9 -27 62 -15 62
5 0 13 -5 16 -10 7 -12 25 -4 25 11 0 5 -6 9 -12 8 -7 -1 -28 4 -46 11 -25 9
-32 17 -29 31 3 11 1 22 -5 25 -5 3 -13 16 -18 28 -7 18 -9 19 -15 4z m15 -58
c0 -5 -4 -10 -9 -10 -5 0 -18 -3 -28 -7 -16 -6 -16 -5 -4 10 15 19 41 23 41 7z
m35 -50 c-3 -5 -10 -10 -16 -10 -5 0 -9 5 -9 10 0 6 7 10 16 10 8 0 12 -4 9
-10z"/>
<path d="M466 1334 c-23 -23 -20 -30 4 -9 11 10 20 20 20 22 0 7 -9 2 -24 -13z"/>
<path d="M395 1300 c4 -6 -1 -7 -11 -3 -12 4 -15 2 -12 -8 6 -18 47 -24 61
-10 8 8 6 11 -6 11 -9 0 -17 5 -17 10 0 6 -5 10 -11 10 -5 0 -7 -4 -4 -10z"/>
<path d="M2832 1248 c-18 -18 -14 -30 8 -23 14 5 20 2 20 -9 0 -9 5 -16 10
-16 13 0 13 3 -2 35 -13 28 -19 30 -36 13z"/>
<path d="M256 1191 c-4 -5 3 -7 14 -4 23 6 26 13 6 13 -8 0 -17 -4 -20 -9z"/>
<path d="M2285 920 c-3 -6 1 -7 9 -4 18 7 21 14 7 14 -6 0 -13 -4 -16 -10z"/>
<path d="M2461 908 c-2 -44 -11 -60 -27 -47 -10 8 -14 8 -14 0 0 -6 -8 -11
-17 -11 -17 -1 -17 -1 0 -11 18 -10 18 -12 -4 -35 -28 -30 -21 -30 26 -3 l36
22 6 -22 c3 -11 12 -21 19 -21 8 0 17 -6 20 -14 3 -8 12 -17 21 -20 10 -4 13
-2 10 8 -3 7 0 19 6 26 9 9 7 11 -8 8 -13 -2 -20 3 -20 12 0 10 9 14 25 13 14
-1 19 1 13 3 -15 7 -17 34 -3 34 24 0 7 18 -20 22 -21 3 -30 0 -30 -9 0 -8 -4
-11 -10 -8 -5 3 -10 2 -10 -4 0 -5 6 -11 13 -14 6 -2 9 -7 6 -11 -16 -17 -35
6 -31 38 2 19 2 42 -1 52 -3 14 -5 11 -6 -8z"/>
<path d="M2550 723 c0 -10 4 -14 8 -8 4 6 11 13 16 18 5 4 2 7 -7 7 -10 0 -17
-8 -17 -17z"/>
<path d="M2501 706 c-9 -10 -9 -16 -1 -21 16 -10 31 7 21 23 -6 10 -10 10 -20
-2z"/>
<path d="M1504 636 c-10 -27 2 -43 14 -19 8 14 9 24 2 28 -6 3 -13 -1 -16 -9z"/>
</g>
</svg>
