<?xml version="1.0" standalone="no"?>
<!DOCTYPE svg PUBLIC "-//W3C//DTD SVG 20010904//EN"
 "http://www.w3.org/TR/2001/REC-SVG-20010904/DTD/svg10.dtd">
<svg version="1.0" xmlns="http://www.w3.org/2000/svg"
 width="227.000000pt" height="200.000000pt" viewBox="0 0 227.000000 200.000000"
 preserveAspectRatio="xMidYMid meet">

<g transform="translate(0.000000,200.000000) scale(0.100000,-0.100000)"
fill="#000000" stroke="none">
<path d="M1479 1831 c-14 -10 -35 -21 -48 -23 -20 -2 -33 -15 -48 -46 0 -2
-10 2 -21 9 -16 10 -27 8 -66 -10 -25 -13 -46 -26 -46 -30 0 -4 -20 -40 -45
-81 -24 -41 -44 -86 -44 -100 1 -21 2 -19 11 10 5 19 18 46 29 61 16 23 25 27
58 23 31 -3 50 3 90 29 34 22 49 38 49 52 -4 78 18 93 66 46 22 -21 42 -31 63
-31 36 0 51 -26 34 -59 -7 -12 -10 -75 -9 -153 l2 -133 5 138 c6 138 11 156
46 157 21 0 86 52 95 76 19 49 -13 73 -62 48 -27 -14 -32 -14 -39 -1 -5 8 -21
18 -36 21 -16 4 -35 9 -44 12 -9 2 -27 -4 -40 -15z m91 -47 c0 -8 -12 -12 -35
-11 -40 2 -47 23 -12 36 24 9 47 -3 47 -25z m120 21 c7 -9 10 -18 6 -22 -3 -3
-6 -1 -6 6 0 8 -7 11 -15 7 -9 -3 -15 0 -15 9 0 19 14 19 30 0z m-25 -34 c6
-11 -63 -67 -71 -58 -4 3 9 20 27 36 38 35 36 34 44 22z m-305 -27 c0 -8 -4
-12 -10 -9 -5 3 -10 13 -10 21 0 8 5 12 10 9 6 -3 10 -13 10 -21z m-30 -24 c0
-22 -30 -35 -42 -18 -12 19 -10 26 9 37 22 12 33 5 33 -19z"/>
<path d="M526 1766 c-4 -19 -2 -52 3 -75 5 -22 8 -41 6 -43 -8 -10 -14 -59 -6
-54 15 10 24 -25 31 -134 l7 -105 1 85 c1 48 6 90 11 95 4 6 11 23 15 39 6 23
4 27 -8 23 -10 -4 -13 -1 -10 8 3 8 11 13 17 12 7 -1 11 7 9 18 -2 11 -7 44
-12 73 -8 49 -32 92 -50 92 -4 0 -11 -15 -14 -34z m59 -106 l7 -35 -22 22
c-18 16 -21 27 -16 49 9 33 19 21 31 -36z"/>
<path d="M1098 1777 c-14 -12 -30 -38 -33 -57 -4 -19 -17 -48 -28 -63 -11 -16
-21 -49 -23 -75 l-3 -47 8 40 c13 73 47 115 90 115 26 0 81 44 81 66 0 5 -4 3
-9 -5 -8 -12 -11 -12 -23 0 -8 8 -19 22 -24 31 -9 16 -11 16 -36 -5z m32 -22
c0 -19 -20 -29 -32 -17 -8 8 -7 16 2 26 14 17 30 12 30 -9z"/>
<path d="M1154 1785 c8 -8 17 -15 20 -15 3 0 6 7 6 15 0 9 -9 15 -21 15 -18 0
-19 -2 -5 -15z"/>
<path d="M1839 1764 c-7 -8 -26 -22 -43 -31 -17 -8 -40 -26 -51 -38 -11 -13
-33 -31 -50 -41 -18 -10 -25 -12 -17 -4 21 23 13 31 -13 14 -27 -18 -33 -39
-11 -47 7 -3 16 -25 20 -48 l7 -43 15 28 c13 26 12 30 -2 41 -15 11 -15 12 0
12 9 0 16 -5 16 -10 0 -5 7 -4 15 3 8 7 15 9 15 4 0 -5 9 9 19 31 10 22 28 51
40 64 l21 24 0 -32 c0 -25 9 -40 35 -64 31 -27 35 -37 37 -81 l1 -51 8 65 c22
170 22 164 -1 193 -24 31 -42 34 -61 11z m14 -124 c-8 -8 -23 25 -23 51 0 44
15 43 21 -3 4 -23 5 -45 2 -48z"/>
<path d="M727 1612 c-4 -32 -10 -67 -13 -77 -4 -11 -3 -16 2 -12 5 3 10 -3 10
-13 0 -13 -4 -16 -12 -9 -8 7 -13 3 -17 -13 -4 -12 -3 -25 1 -28 11 -8 14 -38
14 -160 -1 -63 2 -104 6 -91 4 14 13 26 19 28 14 5 47 -42 39 -55 -3 -5 -1
-24 4 -43 l10 -33 -31 37 c-30 36 -49 47 -49 27 0 -5 7 -10 15 -10 17 0 45
-50 45 -81 0 -21 -2 -20 -29 10 -34 38 -38 30 -30 -64 3 -38 6 -62 7 -52 5 43
42 0 42 -48 0 -15 -9 -38 -20 -52 l-20 -26 -1 24 c0 13 -9 49 -19 79 -11 30
-17 44 -15 30 3 -14 8 -52 11 -85 l6 -60 -21 25 c-23 28 -28 15 -6 -14 23 -30
18 -42 -15 -44 -56 -3 -59 -5 -70 -35 -13 -39 -13 -45 3 -23 12 16 14 16 30
-2 17 -19 17 -20 -11 -43 -15 -14 -32 -31 -37 -39 -4 -8 3 -4 18 9 23 21 55
22 42 1 -3 -5 -1 -11 5 -15 17 -10 12 -38 -5 -31 -13 5 -12 1 2 -19 10 -13 24
-25 30 -25 7 0 12 -3 12 -7 -3 -18 2 -34 9 -30 4 3 8 -20 9 -51 1 -32 -1 -50
-3 -41 -3 8 -19 24 -36 34 -29 17 -30 19 -12 26 15 6 12 8 -14 8 -74 2 -89 33
-47 95 27 40 26 47 -3 16 -18 -19 -18 -19 -19 18 -1 20 3 45 9 56 7 13 7 16
-1 12 -14 -9 -14 -5 5 57 22 73 45 117 61 117 8 0 11 5 8 10 -12 19 -22 10
-50 -41 -32 -59 -50 -50 -28 13 9 26 10 45 4 51 -11 11 14 93 38 121 9 10 25
22 36 27 16 6 16 8 3 8 -9 1 -29 -12 -45 -29 -31 -33 -41 -37 -39 -16 0 8 -3
14 -9 13 -5 -1 -9 -6 -7 -11 2 -5 -4 -6 -11 -3 -13 5 -12 1 0 -24 8 -17 12
-33 8 -37 -8 -8 -24 15 -32 48 -3 14 -24 41 -46 60 -30 26 -37 29 -29 13 7
-12 17 -25 23 -29 8 -4 4 -13 -12 -26 l-24 -19 24 12 c22 10 27 9 48 -15 23
-27 31 -52 13 -41 -5 3 -10 2 -10 -4 0 -5 5 -13 10 -16 6 -3 10 -15 10 -26 0
-10 4 -19 9 -19 5 0 11 -11 14 -25 2 -16 0 -24 -6 -22 -12 4 -15 9 -48 80 -13
26 -30 53 -38 60 -10 9 -10 3 3 -22 16 -30 16 -33 2 -28 -9 4 -16 3 -16 -2 0
-5 11 -12 24 -15 15 -4 26 -16 31 -33 3 -16 12 -35 19 -43 17 -19 29 -103 13
-93 -6 3 -24 21 -40 40 -16 18 -34 33 -41 33 -6 -1 -2 -8 10 -18 11 -10 29
-30 39 -45 18 -27 44 -131 45 -176 l0 -25 -27 26 c-16 14 -39 31 -53 37 l-25
12 24 -21 c33 -28 71 -81 71 -97 0 -7 -8 -13 -17 -13 -29 0 -81 -37 -89 -62
-4 -13 -14 -28 -22 -34 -13 -9 -12 -11 4 -9 11 0 24 4 31 8 14 9 71 -2 79 -15
3 -5 1 -15 -5 -22 -6 -7 -14 -30 -19 -52 -7 -35 -11 -39 -40 -42 -25 -3 -39 4
-63 28 -25 25 -29 33 -19 45 13 16 40 20 40 7 0 -4 9 -8 21 -8 19 0 19 1 3 13
-21 15 -43 16 -64 3 -11 -7 -18 -3 -27 13 -12 20 -12 19 -7 -10 7 -33 -3 -42
-23 -22 -16 16 3 64 34 89 29 23 17 28 -13 5 -30 -23 -44 -18 -44 15 0 23 8
35 33 51 17 12 24 18 14 15 -57 -19 -66 -18 -60 2 7 29 37 53 75 62 l33 8 -35
1 c-20 1 -45 -6 -57 -14 -22 -16 -22 -15 -21 42 0 32 5 65 9 74 11 21 0 32
-18 18 -10 -9 -13 -4 -13 25 0 21 4 35 9 31 6 -3 8 3 6 14 -2 11 6 32 17 46
11 14 17 29 14 32 -7 7 -31 -22 -58 -71 l-17 -31 6 40 c3 22 12 52 20 68 19
38 7 34 -17 -5 -14 -23 -20 -27 -20 -15 0 10 9 27 20 39 10 12 17 25 14 29 -3
5 10 18 28 29 39 23 30 27 -13 5 -36 -19 -49 -13 -49 25 0 30 -28 50 -41 29
-4 -6 -12 -8 -19 -4 -13 8 -11 -26 6 -83 6 -21 5 -22 -20 -12 -32 12 -33 4 -4
-20 l22 -17 -22 -12 c-12 -6 -26 -20 -32 -30 -8 -16 -7 -18 9 -14 20 5 70 -17
88 -39 9 -10 4 -13 -23 -13 -19 0 -34 3 -34 7 0 4 -14 5 -30 1 -25 -5 -29 -3
-24 11 9 24 -1 20 -19 -8 -16 -24 -16 -24 13 -19 17 2 30 0 30 -5 0 -5 31 -41
70 -80 60 -61 70 -75 70 -106 0 -29 -3 -34 -18 -29 -11 4 -10 0 5 -11 13 -10
23 -28 23 -40 l0 -24 -37 19 c-21 10 -46 19 -58 19 -19 1 -19 2 4 20 33 28 20
25 -46 -11 -32 -17 -50 -28 -40 -25 15 5 17 2 12 -17 l-7 -22 17 23 c30 40
125 18 155 -37 10 -20 8 -20 -32 -15 -31 4 -49 1 -63 -10 -19 -15 -19 -16 9
-6 32 12 62 6 89 -18 23 -21 22 -52 -2 -52 -11 0 -31 -14 -45 -31 -37 -44 -32
-53 8 -13 39 39 56 42 80 15 16 -18 15 -21 -14 -64 -16 -25 -30 -55 -30 -68 1
-18 4 -15 15 15 21 61 39 64 47 9 9 -62 24 -73 20 -15 -3 50 16 91 36 78 17
-10 15 -38 -5 -66 -16 -23 -16 -24 0 -12 15 13 17 10 23 -27 10 -63 19 -56 17
12 l-3 62 20 -40 c18 -36 19 -29 4 27 -3 9 5 23 18 32 30 21 41 20 28 -3 -5
-11 -10 -26 -9 -33 0 -7 7 2 15 20 10 23 21 32 38 32 31 0 43 -17 17 -25 -10
-3 -27 -15 -37 -27 l-19 -22 29 22 c16 12 39 22 53 22 23 0 23 0 7 -31 -18
-35 -23 -114 -8 -129 7 -7 8 3 6 25 -7 57 6 103 34 122 35 22 56 3 29 -27 -10
-11 -15 -23 -12 -27 4 -3 7 -1 7 5 0 6 8 16 18 21 15 8 17 5 14 -29 -2 -21 1
-47 6 -57 8 -14 9 -8 5 24 -4 27 -1 48 7 58 20 24 40 18 41 -12 0 -16 4 -37 8
-48 7 -17 9 -16 15 12 4 18 17 39 28 47 23 16 54 10 40 -8 -5 -6 -12 -27 -15
-46 -6 -32 -6 -34 8 -16 8 11 15 26 15 34 0 7 4 11 9 8 5 -3 12 1 15 10 4 11
12 14 24 9 9 -4 34 -7 56 -6 36 2 38 0 32 -21 -4 -13 -9 -39 -11 -58 l-5 -35
11 35 c19 62 48 81 50 33 l1 -28 8 25 c9 29 12 21 12 -35 l0 -40 6 40 c6 34
10 40 30 38 32 -4 27 17 -8 30 -32 12 -40 27 -15 27 8 0 15 -5 15 -11 0 -5 5
-7 10 -4 6 3 10 3 10 -2 0 -4 26 -7 57 -5 55 2 57 2 33 -12 -24 -14 -24 -15
-4 -16 12 0 27 6 33 14 9 11 20 12 43 5 35 -10 51 -3 28 11 -11 7 -7 10 15 10
17 0 36 -4 44 -9 11 -7 7 -12 -15 -25 -38 -20 -17 -20 32 0 22 9 50 13 68 10
28 -6 29 -5 11 7 -18 14 -17 15 8 31 29 19 47 14 47 -12 0 -14 2 -15 10 -2 6
9 5 17 -2 21 -6 4 -7 12 -3 19 6 9 9 9 16 -1 6 -10 9 -11 9 -1 0 7 13 12 29
12 16 0 36 -6 43 -12 7 -7 22 -14 33 -15 19 -1 19 -1 3 11 -26 19 -22 53 7 72
20 13 28 14 40 4 13 -11 14 -10 9 5 -8 20 6 31 59 45 20 6 37 15 37 21 0 5 15
17 34 25 47 23 98 12 130 -27 27 -32 33 -31 15 2 -8 15 -7 24 3 36 11 14 13
13 19 -8 6 -20 7 -18 8 12 1 20 8 55 16 78 8 23 11 39 6 37 -5 -3 -14 1 -21 9
-7 8 -21 15 -31 15 -28 0 -33 20 -11 42 26 27 49 18 61 -24 l9 -33 1 31 c1 21
-7 40 -24 56 -25 25 -25 26 -7 48 15 19 22 21 39 11 12 -6 24 -21 26 -33 4
-23 4 -23 6 -1 0 12 -10 30 -24 41 l-25 20 31 27 c24 19 39 25 58 21 22 -5 23
-5 8 5 -10 6 -31 7 -47 4 -17 -4 -30 -4 -30 -1 0 13 63 75 71 70 5 -3 9 -1 9
5 0 23 -65 26 -112 6 -11 -4 -18 -3 -18 5 0 6 5 8 10 5 6 -3 10 0 10 8 0 16
64 77 82 77 7 0 6 5 -2 15 -7 8 -18 15 -24 14 -7 0 -6 -2 2 -6 19 -7 14 -21
-10 -28 -13 -4 -33 -17 -45 -28 l-23 -20 0 20 c0 12 14 33 31 47 28 24 29 26
9 26 -12 0 -31 -5 -42 -11 -18 -10 -20 -9 -15 6 4 9 7 21 7 25 0 16 43 50 64
51 17 1 18 2 4 6 -21 5 -24 39 -5 46 6 3 -2 6 -19 6 -16 1 -39 7 -49 15 -18
13 -18 14 4 25 13 7 20 15 18 18 -3 2 -15 -1 -27 -7 -31 -17 -34 -7 -15 45 20
50 15 73 -5 25 -13 -33 -40 -41 -40 -12 0 9 -8 26 -16 37 -15 19 -15 19 -8
-10 4 -16 11 -38 15 -47 15 -28 10 -35 -18 -31 -27 4 -26 3 7 -16 19 -11 28
-21 20 -21 -47 -4 -81 -20 -42 -20 18 0 22 -6 22 -30 0 -27 -3 -30 -30 -30
-16 0 -30 -4 -30 -10 0 -5 -14 -10 -30 -10 -21 0 -40 -10 -62 -32 -22 -23 -30
-27 -24 -13 4 11 10 34 13 50 8 42 41 85 75 100 23 9 26 14 15 18 -10 4 -29
-6 -48 -24 -17 -16 -33 -28 -35 -27 -1 2 6 23 17 47 14 32 15 40 4 31 -8 -6
-17 -21 -21 -32 -5 -17 -8 -18 -16 -7 -7 11 -9 9 -7 -6 3 -38 -2 -40 -16 -6
-16 34 -11 56 9 48 7 -3 12 6 13 22 0 14 -1 18 -4 9 -2 -9 -17 -21 -34 -27
-16 -5 -29 -15 -29 -20 0 -6 -7 -11 -15 -11 -8 0 -15 -8 -16 -17 0 -11 -3 -13
-6 -6 -4 11 14 81 34 133 3 8 -3 4 -14 -10 -11 -14 -24 -40 -27 -57 -10 -45
-30 -43 -22 2 5 23 2 45 -9 65 -8 16 -17 30 -18 30 -2 0 -2 -28 0 -62 l4 -63
-31 38 c-18 20 -37 37 -43 37 -5 0 -3 -8 6 -18 23 -25 22 -29 -19 -75 l-36
-40 7 54 c4 30 16 74 26 98 25 57 19 62 -10 8 l-23 -42 5 45 c3 25 3 37 0 27
-2 -9 -9 -15 -14 -11 -5 3 -12 -3 -16 -12 -6 -16 -7 -16 -14 2 -5 10 -5 -1 -2
-26 l6 -45 -23 20 c-20 18 -19 13 9 -36 34 -60 36 -69 21 -69 -5 0 -10 6 -10
13 0 8 -9 22 -21 33 -19 17 -19 14 6 -41 15 -33 29 -80 32 -105 l4 -45 -25 37
c-30 42 -32 53 -11 44 8 -3 15 -1 15 4 0 6 -13 10 -30 10 -19 0 -33 7 -40 21
-7 11 -14 18 -17 15 -3 -3 -1 -12 6 -20 9 -11 9 -15 -1 -19 -9 -4 -8 -6 3 -6
9 -1 22 -7 28 -14 8 -11 3 -17 -25 -30 l-35 -17 1 52 c2 75 1 92 -7 85 -3 -4
-6 -33 -5 -65 l2 -57 -19 23 c-19 21 -20 21 -26 3 -3 -10 0 -30 6 -45 16 -34
5 -44 -23 -20 -23 21 -23 21 -1 -33 3 -7 0 -13 -6 -13 -6 0 -8 -6 -5 -14 3 -8
0 -17 -7 -22 -8 -5 -10 -3 -4 6 6 10 4 12 -7 7 -11 -4 -15 -1 -13 11 2 9 7 39
11 65 4 27 13 51 20 54 8 3 14 11 14 19 0 7 9 18 20 24 11 6 20 16 20 22 0 7
-17 -5 -39 -26 l-39 -38 9 46 c5 26 13 55 19 66 6 11 8 20 5 20 -3 0 -15 -19
-25 -42 -20 -44 -23 -40 -22 27 l1 30 -7 -30 -7 -30 -14 33 c-7 18 -18 35 -23
38 -5 4 -3 -7 5 -22 8 -16 18 -40 22 -52 7 -24 7 -24 -22 -6 l-28 18 28 -30
c15 -17 27 -42 27 -57 0 -15 4 -27 9 -27 4 0 8 -10 7 -22 -2 -40 -42 -35 -81
9 l-33 38 26 29 c29 31 12 26 -25 -7 -12 -11 -20 -24 -17 -28 3 -5 1 -9 -4 -9
-15 0 -24 49 -12 68 9 14 10 13 5 -8 -5 -21 -4 -22 5 -7 6 9 8 21 5 27 -3 5 2
18 12 29 13 16 20 18 32 8 12 -10 12 -9 1 10 -12 18 -12 24 1 39 8 10 9 15 2
11 -7 -4 -26 -30 -44 -57 -18 -28 -36 -50 -41 -50 -4 0 -8 -16 -8 -36 0 -21
-4 -33 -10 -29 -5 3 -10 25 -10 48 0 23 -7 62 -15 87 l-15 45 6 -45 6 -45 -23
20 c-45 39 -59 55 -59 66 0 8 -5 8 -15 -1 -12 -10 -15 -10 -15 4 0 9 5 16 11
16 6 0 9 6 6 14 -3 8 1 20 9 27 10 9 12 14 4 19 -8 5 -7 18 4 45 9 21 14 40
12 42 -2 3 -7 -5 -11 -16 -7 -23 -21 -28 -28 -8 -2 6 -2 0 0 -15 6 -35 -10
-36 -25 -3 -6 14 -17 25 -23 25 -7 0 -5 -8 5 -19 11 -12 16 -30 14 -48 l-4
-28 -14 28 c-7 15 -17 27 -21 27 -5 0 0 -15 11 -32 27 -45 25 -51 -11 -33 -31
16 -31 17 -24 78 3 34 13 76 22 92 13 27 13 36 1 80 -15 51 -14 85 2 85 10 0
1 71 -10 83 -4 4 -10 -18 -13 -51z m673 -357 c0 -8 -4 -15 -10 -15 -5 0 -7 7
-4 15 4 8 8 15 10 15 2 0 4 -7 4 -15z m-532 -112 c18 -21 35 -48 39 -61 4 -16
8 -20 13 -12 4 7 7 -6 6 -29 0 -34 -4 -41 -21 -41 -14 0 -16 3 -7 9 10 6 10
10 -3 21 -9 7 -25 26 -36 42 -17 23 -18 32 -9 43 7 8 8 15 3 15 -6 0 -15 -10
-21 -22 -9 -19 -11 -20 -11 -5 -1 10 4 27 9 38 6 10 8 19 5 19 -3 0 -12 -15
-20 -32 l-14 -33 -1 31 c0 27 15 54 29 54 3 0 20 -17 39 -37z m636 21 c3 -8 2
-12 -4 -9 -17 11 -11 -11 10 -35 11 -13 20 -35 20 -49 -1 -24 -2 -24 -14 -8
-7 9 -24 17 -36 17 -21 0 -22 2 -9 18 8 10 -1 3 -18 -17 -36 -37 -42 -29 -17
22 14 27 52 77 60 77 1 0 5 -7 8 -16z m146 -56 c0 -25 -3 -29 -12 -20 -13 13
-29 16 -25 5 1 -5 -8 -18 -20 -30 -27 -27 -29 -23 -7 20 34 67 64 79 64 25z
m300 -12 c0 -2 -7 -6 -15 -10 -8 -3 -15 -1 -15 4 0 6 7 10 15 10 8 0 15 -2 15
-4z m-50 -50 c0 -6 -7 -2 -15 8 -8 11 -15 25 -15 30 0 6 7 2 15 -8 8 -11 15
-25 15 -30z m-1150 15 c5 -11 10 -34 10 -52 0 -31 0 -32 -20 -14 -12 11 -20
31 -20 52 0 37 14 43 30 14z m130 -50 c0 -8 -3 -12 -6 -8 -3 3 -17 2 -30 -3
-27 -11 -30 -5 -11 20 6 9 1 5 -12 -10 l-24 -25 6 34 c4 19 13 41 19 49 10 12
16 10 35 -14 13 -16 23 -35 23 -43z m1103 56 c3 -8 -7 -21 -23 -30 -30 -18
-42 -14 -33 11 12 31 47 43 56 19z m-483 -17 c12 -7 5 -19 -38 -62 l-52 -52 0
33 c0 36 36 90 60 90 8 1 22 -4 30 -9z m149 -8 c5 -9 10 -33 11 -52 4 -67 2
-72 -27 -68 -35 4 -39 21 -9 38 14 7 23 17 20 22 -8 13 -23 9 -44 -12 -22 -22
-26 -11 -9 22 8 15 17 18 35 14 14 -4 24 -2 24 4 0 5 -11 10 -25 10 -27 0 -32
9 -13 28 16 16 26 15 37 -6z m-419 -47 c0 -5 -5 -3 -10 5 -5 8 -10 20 -10 25
0 6 5 3 10 -5 5 -8 10 -19 10 -25z m310 -21 c0 -13 5 -26 10 -29 6 -4 8 -10 5
-15 -3 -4 -21 5 -39 22 -34 30 -34 31 -19 55 16 24 17 24 30 7 7 -10 13 -28
13 -40z m304 30 c4 -15 5 -29 2 -31 -3 -3 0 -10 5 -17 10 -11 43 -62 65 -99 7
-10 9 -28 6 -40 -5 -20 -6 -20 -13 6 -18 68 -102 134 -156 124 -34 -6 -28 7
20 47 50 43 63 44 71 10z m62 -26 c8 -16 10 -28 4 -28 -18 0 -50 39 -50 61 0
18 2 20 16 8 8 -7 22 -25 30 -41z m-1714 -4 c-2 -22 1 -33 8 -29 6 3 7 0 4 -9
-3 -9 -10 -14 -14 -11 -10 6 -21 76 -14 87 11 17 18 -2 16 -38z m857 20 c18
-23 19 -28 6 -41 -19 -18 -18 -41 0 -73 20 -35 18 -43 -6 -29 -15 8 -24 8 -32
0 -7 -7 -14 -5 -24 7 -11 14 -12 15 -7 1 3 -10 -1 -19 -10 -22 -22 -9 -20 5 4
36 23 29 27 45 7 29 -11 -9 -13 0 -13 46 1 36 5 57 13 57 6 0 15 3 19 8 12 12
22 8 43 -19z m292 -22 c-11 -8 -21 -19 -21 -25 0 -5 9 -2 19 7 19 17 20 17 31
-3 9 -18 8 -23 -12 -31 l-23 -11 23 5 c20 4 22 0 22 -35 0 -46 -13 -51 -29
-11 -7 16 -25 43 -41 60 l-29 32 26 25 c21 19 30 22 41 12 12 -10 11 -14 -7
-25z m390 -7 c-17 -20 -31 -30 -31 -23 0 14 51 70 58 63 3 -2 -9 -20 -27 -40z
m-817 0 c9 -14 19 -46 22 -72 l6 -48 -27 30 c-18 19 -29 26 -32 17 -3 -6 -10
-9 -15 -6 -6 4 -8 2 -4 -4 3 -6 -5 -19 -19 -31 -25 -19 -26 -20 -6 -30 28 -15
36 -14 21 4 -10 13 -10 19 5 35 10 11 22 20 26 20 16 0 39 -60 43 -112 3 -38
2 -46 -5 -30 -9 23 -22 32 -14 10 2 -7 7 -33 9 -57 l5 -44 -24 23 c-13 12 -24
25 -23 29 3 16 -16 41 -31 41 -34 0 -46 16 -33 45 10 22 9 29 -3 41 -17 17
-20 28 -5 19 6 -3 10 3 10 14 0 12 -5 21 -11 21 -5 0 -7 5 -3 12 6 9 9 9 12 0
2 -7 11 -12 20 -12 14 0 15 2 3 9 -13 8 -13 12 -1 26 12 15 12 19 -2 29 -16
12 -16 14 0 28 26 24 58 21 76 -7z m-374 -23 c0 -15 -2 -15 -10 -2 -13 20 -13
33 0 25 6 -3 10 -14 10 -23z m949 19 c11 -7 9 -11 -9 -21 -25 -14 -33 -9 -24
14 7 18 13 19 33 7z m-527 -55 c-2 -5 -9 -1 -14 8 -5 9 -6 21 -2 28 9 14 25
-22 16 -36z m118 32 c0 -7 -4 -19 -9 -26 -7 -11 -10 -10 -15 3 -3 9 -4 21 0
26 8 13 24 11 24 -3z m50 0 c0 -7 -4 -19 -9 -27 -7 -11 -11 -10 -20 7 -15 28
-14 32 9 32 11 0 20 -6 20 -12z m-295 -8 c-3 -5 -16 -15 -28 -21 -22 -12 -22
-12 -3 10 19 21 43 30 31 11z m405 -7 c0 -10 -4 -14 -8 -8 -4 6 -11 13 -16 18
-5 4 -2 7 7 7 10 0 17 -8 17 -17z m277 5 c15 -20 24 -50 13 -43 -6 3 -10 2
-10 -4 0 -5 5 -13 10 -16 6 -3 10 -14 10 -23 -1 -12 -5 -9 -15 9 -8 15 -24 29
-36 32 -11 3 -18 10 -14 16 4 8 13 8 28 0 l22 -10 -22 19 c-12 11 -19 22 -16
26 10 9 20 7 30 -6z m393 -9 c0 -6 -4 -7 -10 -4 -5 3 -10 11 -10 16 0 6 5 7
10 4 6 -3 10 -11 10 -16z m-600 -11 c0 -6 -3 -8 -7 -5 -3 4 -12 2 -20 -4 -16
-14 -18 2 -1 19 12 12 28 7 28 -10z m536 -12 c41 -41 44 -59 9 -50 -33 8 -75
-3 -75 -19 0 -7 -13 -23 -30 -35 -16 -13 -30 -30 -30 -40 -1 -16 -1 -16 -11 1
-5 9 -7 22 -3 29 4 7 3 8 -4 4 -7 -4 -12 -2 -12 3 0 6 5 11 10 11 6 0 10 8 10
17 0 40 76 83 95 53 3 -5 12 -10 18 -10 21 1 -26 30 -47 30 -12 0 -35 -9 -52
-19 l-32 -19 5 21 c8 32 43 57 82 57 24 0 42 -9 67 -34z m-735 -38 c14 -53 7
-70 -18 -45 -14 13 -14 21 -5 42 7 15 8 25 2 25 -6 0 -10 10 -10 22 0 34 17
10 31 -44z m359 56 c0 -4 -16 -24 -35 -45 -41 -46 -46 -39 -10 14 23 33 45 48
45 31z m124 -8 c-3 -8 -12 -17 -20 -20 -12 -4 -12 -2 -4 14 12 23 32 27 24 6z
m-383 -8 c1 -7 3 -24 4 -38 1 -14 6 -33 10 -42 5 -13 3 -18 -10 -18 -12 0 -16
6 -12 19 3 14 0 17 -14 14 -12 -3 -21 1 -25 12 -6 13 -9 14 -16 3 -8 -10 -9
-10 -5 2 3 10 15 14 38 13 28 -1 31 1 18 10 -16 12 -15 37 2 37 5 0 10 -6 10
-12z m459 -19 c0 -11 -4 -17 -10 -14 -5 3 -10 15 -10 26 0 11 5 17 10 14 6 -3
10 -15 10 -26z m-543 -11 c-3 -8 -6 -5 -6 6 -1 11 2 17 5 13 3 -3 4 -12 1 -19z
m203 16 c0 -8 -67 -74 -75 -74 -3 0 -1 6 5 13 5 6 19 24 31 40 19 25 39 36 39
21z m319 -26 c13 -37 7 -47 -19 -30 -11 7 -23 12 -27 12 -5 0 -1 -5 7 -10 13
-8 10 -14 -15 -36 -25 -21 -31 -23 -33 -9 -2 9 4 27 12 40 9 14 13 25 10 25
-4 0 1 9 11 20 26 28 41 25 54 -12z m-1465 8 c-3 -8 -1 -17 5 -21 6 -3 11 -13
11 -22 0 -12 -3 -13 -13 -4 -8 6 -17 8 -20 4 -4 -3 -7 -1 -7 5 0 7 -7 12 -16
12 -24 0 -11 23 17 31 13 4 25 7 26 8 1 1 0 -5 -3 -13z m1296 -1 c0 -8 6 -15
14 -15 18 0 25 -10 37 -53 l9 -32 -23 26 c-12 14 -31 32 -41 40 -18 13 -19 12
-13 -5 5 -11 2 -26 -6 -35 -7 -9 -26 -47 -42 -85 -16 -38 -31 -64 -33 -58 -2
6 8 41 23 77 14 36 23 69 21 74 -3 5 1 14 10 21 8 7 12 20 9 28 -3 7 -3 18 1
23 9 15 34 10 34 -6z m-718 -24 c-30 -25 -28 -37 3 -17 14 9 25 12 25 6 0 -5
-4 -10 -10 -10 -15 0 -12 -33 5 -57 11 -16 12 -27 5 -45 -10 -23 -10 -23 -7 3
5 35 -20 29 -52 -14 l-23 -32 7 35 c4 19 8 44 10 55 1 11 8 19 14 17 9 -2 9 3
1 17 -5 11 -10 22 -10 25 0 9 43 46 48 41 3 -3 -5 -13 -16 -24z m596 -8 c12
-32 23 -127 13 -118 -3 4 -11 28 -18 53 -6 26 -14 57 -18 70 -10 32 10 28 23
-5z m-288 -35 c0 -14 -19 1 -31 25 -12 22 -12 22 10 3 11 -11 21 -23 21 -28z
m254 20 c7 -27 -9 -47 -25 -31 -12 12 -3 53 11 53 4 0 10 -10 14 -22z m533
-48 c-1 -8 -12 -16 -24 -18 -23 -3 -54 -32 -35 -32 6 0 14 5 17 10 11 17 43
11 65 -12 14 -15 20 -35 20 -65 0 -40 -1 -42 -19 -31 -18 11 -37 51 -33 70 1
3 -5 11 -12 17 -20 16 -54 0 -103 -49 -24 -24 -44 -37 -48 -31 -3 6 -1 11 4
11 6 0 11 8 11 19 0 51 65 150 99 152 12 0 13 2 2 6 -11 5 -11 7 0 14 16 10
60 -38 56 -61z m166 28 c-22 -24 -43 -50 -46 -58 -3 -8 -6 2 -6 23 -1 45 27
77 66 77 l27 0 -41 -42z m-994 6 c34 -43 25 -65 -9 -24 -16 19 -30 38 -30 43
0 15 19 6 39 -19z m140 -33 c-20 -16 -25 -17 -27 -5 -2 8 0 23 4 32 4 9 6 22
5 27 -1 6 8 0 20 -12 l22 -22 -24 -20z m-194 39 c-3 -5 -11 -10 -16 -10 -6 0
-7 5 -4 10 3 6 11 10 16 10 6 0 7 -4 4 -10z m923 -24 c23 -46 6 -53 -17 -7
-15 29 -18 42 -9 39 7 -3 19 -17 26 -32z m-385 -11 c22 -47 21 -62 -2 -41 -15
14 -24 15 -40 6 -18 -9 -21 -8 -21 7 0 20 27 63 39 63 4 0 15 -16 24 -35z
m-500 -27 c4 -10 2 -18 -3 -18 -16 0 -11 -32 7 -45 17 -13 9 -40 -9 -29 -7 4
-8 2 -4 -5 4 -6 -2 -23 -13 -37 -23 -29 -27 -25 -10 9 10 22 10 22 -10 -1 -11
-13 -22 -18 -26 -12 -3 5 -1 10 5 10 6 0 8 5 5 11 -4 5 0 18 8 27 8 9 18 28
22 41 l7 24 -23 -22 c-32 -30 -36 -9 -9 54 19 45 22 47 34 29 7 -10 16 -27 19
-36z m647 26 c7 -17 7 -31 0 -42 -8 -15 -9 -15 -10 -1 0 9 -9 24 -20 34 -21
19 -18 35 6 35 8 0 19 -12 24 -26z m-965 5 c11 -17 0 -20 -21 -4 -17 13 -17
14 -2 15 9 0 20 -5 23 -11z m594 -15 c-17 -21 -31 -17 -19 6 6 11 15 18 21 14
6 -4 6 -11 -2 -20z m-629 -14 c0 -6 -9 -5 -20 2 -11 7 -20 16 -20 21 0 4 9 3
20 -3 11 -6 20 -15 20 -20z m-477 13 c-8 -3 -5 -12 11 -26 26 -25 51 -77 36
-77 -6 0 -10 7 -10 15 0 8 -4 15 -10 15 -5 0 -25 14 -45 32 -38 32 -34 48 10
47 11 0 15 -3 8 -6z m917 -24 c0 -10 -4 -19 -10 -19 -5 0 -10 12 -10 26 0 14
4 23 10 19 6 -3 10 -15 10 -26z m114 15 c9 -22 2 -27 -24 -19 -17 5 -19 10 -9
21 15 18 25 18 33 -2z m131 -11 c4 -16 13 -56 22 -91 9 -34 13 -65 10 -69 -4
-3 -7 1 -7 10 0 14 -10 48 -36 126 -2 8 -6 12 -9 10 -2 -2 5 -36 16 -74 10
-38 19 -80 19 -93 0 -39 22 -20 39 34 9 27 31 71 50 97 l33 48 24 -26 c13 -14
25 -29 25 -33 7 -44 8 -81 4 -102 -6 -22 -8 -21 -26 19 -23 52 -23 51 -1 52 9
1 1 5 -18 8 -44 9 -48 6 -27 -17 24 -26 21 -41 -10 -55 -34 -15 -70 -52 -79
-81 -5 -16 -12 -3 -26 54 -11 41 -20 85 -21 96 -1 12 -13 31 -26 41 -27 22
-23 60 4 49 9 -3 15 0 15 9 0 26 19 16 25 -12z m277 10 c15 -17 13 -20 -18
-40 -34 -22 -34 -22 -34 -2 0 24 17 59 29 59 4 0 15 -8 23 -17z m-928 -38 c5
-20 4 -27 -3 -20 -5 6 -13 24 -17 40 -4 20 -3 27 3 20 6 -5 14 -23 17 -40z
m363 -7 c-3 -7 -5 -2 -5 12 0 14 2 19 5 13 2 -7 2 -19 0 -25z m-287 7 c0 -8
-4 -15 -10 -15 -5 0 -7 7 -4 15 4 8 8 15 10 15 2 0 4 -7 4 -15z m90 5 c0 -5 0
-13 0 -17 0 -5 -6 -8 -12 -8 -7 0 -16 -4 -20 -10 -4 -5 -10 -6 -14 -2 -4 4 1
16 11 27 20 22 35 26 35 10z m367 -26 c2 -5 -16 -8 -42 -6 -40 4 -44 6 -35 23
10 17 14 17 42 6 17 -7 33 -17 35 -23z m460 -16 c-2 -13 -4 -5 -4 17 -1 22 1
32 4 23 2 -10 2 -28 0 -40z m-657 32 c0 -5 -4 -10 -10 -10 -5 0 -10 5 -10 10
0 6 5 10 10 10 6 0 10 -4 10 -10z m619 -16 c3 -16 1 -17 -13 -5 -19 16 -21 34
-3 29 6 -3 14 -13 16 -24z m-985 -18 c4 -19 13 -39 21 -46 8 -7 15 -22 14 -34
0 -13 -11 0 -30 38 -31 63 -34 76 -20 76 5 0 12 -15 15 -34z m446 14 c0 -5 -4
-10 -10 -10 -5 0 -10 5 -10 10 0 6 5 10 10 10 6 0 10 -4 10 -10z m727 -28 c15
-36 20 -31 -66 -63 -18 -7 -47 -24 -64 -38 l-30 -25 8 25 c17 54 96 142 124
137 8 -2 21 -18 28 -36z m-1065 -3 c-1 -12 -11 -31 -22 -41 -11 -10 -20 -23
-20 -29 0 -6 -4 -8 -9 -5 -11 7 5 73 22 94 15 19 32 8 29 -19z m127 -3 c12
-18 21 -48 21 -66 l0 -33 -25 23 c-14 13 -25 28 -25 33 0 6 -7 19 -16 29 -14
14 -14 20 -4 33 18 22 26 19 49 -19z m397 22 c4 -7 4 -10 -1 -6 -4 4 -14 0
-21 -10 -12 -16 -13 -15 -14 6 0 24 24 30 36 10z m337 -24 c9 -19 17 -43 16
-52 -1 -10 -4 -7 -8 8 -5 19 -14 25 -34 25 -29 -1 -33 6 -17 36 15 27 22 24
43 -17z m-478 16 c-3 -5 0 -7 8 -4 8 3 18 0 22 -6 9 -14 -10 -36 -36 -43 -16
-4 -19 -1 -15 21 2 15 5 30 5 35 1 4 6 7 12 7 5 0 7 -4 4 -10z m-461 -16 c3
-8 2 -12 -4 -9 -6 3 -10 10 -10 16 0 14 7 11 14 -7z m544 -5 c19 -30 8 -34
-12 -4 -9 14 -13 25 -9 25 5 0 14 -9 21 -21z m-188 -6 c0 -10 -4 -24 -9 -32
-6 -8 -6 -24 0 -38 5 -13 5 -23 -1 -23 -5 0 -12 9 -15 21 -4 11 -9 18 -12 16
-2 -3 3 -19 11 -36 9 -16 16 -32 16 -35 0 -10 -35 8 -48 23 -11 14 -11 14 -6
-2 6 -16 -24 -57 -41 -57 -10 0 -4 45 8 65 38 65 84 108 71 68 -5 -14 -4 -15
4 -4 5 7 7 22 5 32 -3 10 0 19 6 19 6 0 11 -8 11 -17z m-184 -48 c15 -20 25
-37 23 -39 -2 -2 -22 -6 -44 -9 l-40 -6 24 19 c23 20 23 20 2 20 -19 0 -20 3
-10 22 10 18 9 20 -4 15 -11 -4 -15 0 -14 13 2 25 28 11 63 -35z m217 12 c-7
-11 -23 12 -23 33 1 12 4 11 15 -4 8 -10 12 -23 8 -29z m231 27 c3 -9 6 -25 6
-37 0 -20 0 -20 -25 3 -19 18 -22 26 -14 37 15 17 26 17 33 -3z m-93 -16 c1
-7 1 -18 0 -25 -1 -6 3 -14 9 -18 5 -3 10 -13 10 -22 0 -8 9 -28 20 -43 11
-16 17 -31 13 -33 -5 -3 -17 12 -27 33 -12 25 -23 37 -32 33 -8 -3 -14 -1 -14
5 0 6 6 12 13 15 6 2 8 8 4 13 -5 5 -13 1 -18 -9 -6 -10 -23 -17 -42 -18 -18
-1 -24 -3 -14 -6 22 -6 22 -15 -3 -44 l-19 -24 -1 40 c0 44 22 85 46 85 8 0
13 4 10 9 -4 5 0 12 6 14 23 9 38 7 39 -5z m402 -18 c4 -17 0 -20 -24 -20 -33
0 -38 16 -12 36 21 15 29 11 36 -16z m-833 5 c0 -8 -4 -15 -10 -15 -5 0 -10
-7 -10 -15 0 -17 -16 -20 -25 -5 -3 6 1 13 9 16 9 3 16 12 16 20 0 8 5 14 10
14 6 0 10 -7 10 -15z m1067 -41 c3 -38 3 -39 -13 -16 -9 12 -23 22 -32 22 -13
0 -12 3 3 20 26 29 40 20 42 -26z m-747 -24 l0 -35 -20 33 c-17 27 -18 37 -9
48 17 20 29 1 29 -46z m188 28 c31 -51 37 -83 15 -85 -32 -2 -69 87 -46 110 9
10 10 10 31 -25z m198 -12 c6 -35 -10 -101 -27 -112 -6 -3 -9 9 -8 28 0 18 -4
48 -9 65 -9 27 -8 34 6 43 27 15 31 12 38 -24z m274 9 c-24 -25 -50 -33 -50
-16 0 13 41 41 59 41 10 0 8 -7 -9 -25z m-100 -6 c0 -5 -4 -9 -8 -9 -5 0 -9 7
-9 15 0 8 4 12 9 9 4 -3 8 -9 8 -15z m-872 -14 c0 -14 -4 -25 -9 -25 -5 0 -9
11 -9 25 0 14 4 25 9 25 5 0 9 -11 9 -25z m780 -48 c-13 -44 -21 -46 -36 -11
-9 19 -9 30 0 47 7 12 11 27 9 32 -1 6 7 1 18 -10 18 -18 19 -24 9 -58z m52
41 c-1 -28 -2 -30 -11 -15 -6 10 -8 25 -5 33 9 24 16 16 16 -18z m-887 -5 c-7
-2 -10 -10 -7 -18 3 -8 1 -22 -5 -32 -10 -17 -10 -17 -11 3 0 11 -6 26 -12 33
-11 11 -10 12 0 6 9 -4 15 0 19 15 4 16 8 18 17 9 8 -8 8 -13 -1 -16z m1086
-10 c14 -31 1 -72 -28 -90 -16 -10 -19 -8 -25 19 -3 18 -1 37 5 44 9 11 6 14
-15 14 -34 0 -33 16 1 34 33 17 47 13 62 -21z m-734 -28 c16 -40 16 -40 -4
-20 -11 11 -23 34 -27 50 -9 40 9 23 31 -30z m345 10 c0 -20 -56 -76 -75 -74
-5 0 -4 3 3 6 6 2 12 11 12 19 0 8 9 33 21 56 16 31 23 38 30 27 5 -8 9 -23 9
-34z m-542 23 c32 -32 3 -44 -57 -26 -32 10 -33 12 -16 24 23 17 57 18 73 2z
m826 -9 c4 -4 -6 -13 -23 -22 -17 -8 -31 -12 -31 -8 0 14 32 52 39 44 3 -4 10
-11 15 -14z m-1137 -12 c-6 -20 -27 -19 -27 2 0 14 5 19 15 14 9 -3 14 -10 12
-16z m623 6 c27 -23 25 -31 -5 -25 -14 2 -25 9 -25 15 0 6 -6 2 -14 -9 -13
-17 -12 -20 6 -27 15 -5 19 -14 16 -32 -3 -14 -1 -25 5 -25 6 0 1 -10 -10 -22
-12 -13 -30 -39 -42 -58 -21 -35 -21 -35 -21 -8 0 14 12 40 26 57 32 38 24 41
-11 4 l-25 -28 6 35 c4 19 12 44 18 55 5 11 9 24 8 29 -3 8 36 56 45 56 1 0
12 -8 23 -17z m736 -1 c13 -8 30 -56 18 -50 -5 2 -24 10 -41 17 -18 7 -33 16
-33 20 0 20 34 28 56 13z m-1404 -52 c4 -28 2 -31 -16 -26 -12 3 -38 6 -59 6
-34 0 -37 2 -27 20 15 28 61 50 81 39 9 -4 19 -22 21 -39z m227 18 c-13 -11
-17 -18 -9 -15 20 6 21 -33 1 -56 -19 -24 -29 -13 -25 29 3 38 30 78 47 67 5
-3 -1 -14 -14 -25z m-129 -2 c9 -12 5 -21 -22 -45 -41 -37 -48 -38 -48 -5 0
55 41 84 70 50z m200 10 c0 -3 -4 -8 -10 -11 -5 -3 -10 -1 -10 4 0 6 5 11 10
11 6 0 10 -2 10 -4z m191 -23 c2 1 -2 -4 -10 -10 -17 -15 -31 -16 -50 -4 -10
7 -8 12 10 25 21 14 25 15 35 1 6 -8 13 -14 15 -12z m499 17 c0 -5 -5 -10 -11
-10 -5 0 -7 5 -4 10 3 6 8 10 11 10 2 0 4 -4 4 -10z m80 -35 c-1 -11 -8 -29
-17 -40 -15 -19 -15 -18 -9 14 3 18 6 43 6 55 0 17 2 18 10 6 5 -8 10 -24 10
-35z m140 -6 l0 -39 -42 6 c-70 9 -73 12 -52 36 21 23 74 49 86 42 5 -3 8 -23
8 -45z m-660 11 c0 -14 -28 -1 -34 16 -4 12 -2 12 14 4 11 -6 20 -15 20 -20z
m134 4 c17 -17 21 -34 8 -34 -5 0 -14 11 -20 25 -13 29 -10 31 12 9z m106 -21
c-1 -39 -10 -33 -24 15 -6 16 -3 22 8 22 12 0 16 -10 16 -37z m604 21 c20 -19
20 -23 0 -45 -15 -16 -17 -16 -50 3 -39 23 -40 26 -16 44 23 18 47 17 66 -2z
m-1009 -4 c7 -11 -10 -21 -51 -30 -36 -8 -42 -3 -21 19 10 11 8 11 -10 2 -14
-7 -23 -8 -23 -2 0 17 96 26 105 11z m512 -7 c-3 -10 -8 -31 -12 -48 l-7 -30
-15 28 c-13 26 -13 31 3 48 21 24 37 25 31 2z m-145 -30 c2 -25 -2 -42 -12
-50 -13 -11 -13 -12 3 -13 19 0 21 -8 7 -30 -18 -29 -40 72 -24 114 11 28 23
17 26 -21z m238 18 c0 -11 -3 -27 -6 -36 -6 -14 -8 -14 -25 1 -18 16 -18 18
-3 36 22 23 34 23 34 -1z m-854 -2 c8 -13 -13 -29 -39 -29 -15 0 -16 3 -7 20
12 22 35 26 46 9z m299 0 c11 -17 -1 -21 -15 -4 -8 9 -8 15 -2 15 6 0 14 -5
17 -11z m101 -11 c7 -22 7 -22 16 -3 7 16 7 15 2 -5 -3 -14 -6 -35 -6 -47 0
-13 -5 -20 -10 -17 -5 4 -8 15 -5 25 3 10 -1 26 -9 36 -16 21 -18 33 -5 33 5
0 13 -10 17 -22z m-36 -4 c0 -8 -4 -12 -10 -9 -5 3 -10 10 -10 16 0 5 5 9 10
9 6 0 10 -7 10 -16z m-250 -45 c0 -28 -6 -46 -17 -55 -23 -17 -34 -18 -28 -1
2 6 9 31 15 55 14 54 30 54 30 1z m88 1 c-5 -17 -13 -30 -16 -30 -4 0 -17 -3
-30 -6 -21 -6 -23 -4 -19 22 3 16 10 28 16 26 7 -1 19 5 27 13 23 22 34 9 22
-25z m152 8 c0 -6 -6 -6 -14 1 -12 10 -15 8 -18 -11 -4 -20 -6 -20 -12 -6 -10
23 14 50 32 36 6 -6 12 -15 12 -20z m364 10 c13 -49 5 -58 -27 -34 -16 12 -16
17 -5 35 16 27 24 26 32 -1z m323 -4 c2 -6 -12 -23 -31 -38 -34 -26 -37 -26
-61 -10 -32 21 -32 30 3 49 30 16 83 16 89 -1z m-1155 -34 c4 -26 0 -33 -25
-45 -38 -19 -37 -19 -37 6 0 36 33 84 51 73 4 -2 9 -17 11 -34z m378 34 c0 -8
-32 -33 -43 -34 -4 0 -2 9 5 20 12 19 38 28 38 14z m280 -44 c-1 -22 -2 -23
-11 -7 -5 9 -15 17 -21 17 -7 0 -6 -6 2 -15 15 -18 13 -20 -17 -29 -29 -9 -29
-5 3 46 28 44 44 39 44 -12z m279 36 c12 -14 5 -46 -10 -46 -5 0 -12 7 -15 15
-4 8 -11 15 -17 15 -7 0 -7 -4 1 -12 7 -7 12 -18 12 -25 0 -14 -40 -34 -52
-26 -16 9 41 93 61 93 5 0 14 -6 20 -14z m-819 -3 c0 -7 -69 -73 -76 -73 -2 0
-4 18 -4 40 l0 40 40 0 c22 0 40 -3 40 -7z m11 -83 c-11 -20 -18 -40 -14 -44
3 -3 -3 -6 -15 -6 -11 0 -24 5 -27 10 -3 6 2 10 12 10 17 1 17 1 1 11 -25 14
-23 22 13 60 28 30 32 32 41 15 8 -14 5 -28 -11 -56z m267 32 c2 -12 -1 -22
-6 -22 -15 0 -34 28 -27 40 10 17 30 6 33 -18z m121 12 c18 -9 29 -20 24 -25
-13 -13 -51 1 -56 22 -6 23 -8 23 32 3z m296 -4 c18 -20 17 -20 -18 -20 -40 0
-40 0 -31 24 8 22 27 20 49 -4z m-1001 -41 c-8 -14 -24 8 -24 36 0 18 1 18 16
-3 8 -12 12 -27 8 -33z m651 41 c3 -5 1 -19 -5 -31 -15 -27 -35 -10 -25 20 7
22 20 27 30 11z m584 -4 c9 -11 9 -16 1 -21 -13 -8 -60 13 -60 27 0 14 47 9
59 -6z m-739 -4 c0 -5 -10 -17 -21 -28 -16 -14 -23 -16 -26 -6 -3 8 -10 5 -22
-10 -22 -26 -46 -16 -31 13 8 14 18 18 39 14 20 -3 31 0 35 10 6 16 26 21 26
7z m390 -54 c0 -61 -17 -52 -19 10 -1 41 2 53 9 42 5 -8 10 -32 10 -52z m-335
42 c7 -12 -12 -40 -26 -40 -5 0 -9 11 -9 25 0 25 23 35 35 15z m640 -11 c9
-13 6 -16 -28 -24 -23 -6 -27 -4 -27 14 0 16 6 21 24 21 14 0 28 -5 31 -11z
m-984 -16 c12 -15 12 -16 -4 -10 -10 4 -23 7 -28 7 -5 0 -9 5 -9 10 0 16 26
12 41 -7z m294 -4 c-4 -5 -1 -9 4 -9 6 0 11 -12 11 -26 l0 -25 -32 23 c-26 18
-29 23 -15 26 9 2 17 10 17 18 0 8 5 12 10 9 6 -4 8 -11 5 -16z m333 -20 c3
-27 1 -32 -9 -21 -7 6 -21 12 -31 12 -22 0 -23 8 -1 32 23 26 37 18 41 -23z
m287 30 c10 -16 -1 -22 -26 -14 -17 6 -19 9 -8 16 19 12 26 11 34 -2z m-758
-19 c11 -16 10 -21 -6 -29 -25 -14 -44 5 -30 31 12 23 21 23 36 -2z m355 -11
c-2 -19 -1 -21 7 -9 9 12 11 11 11 -7 0 -12 3 -29 6 -38 5 -13 2 -16 -12 -13
-12 2 -20 12 -21 28 0 14 -4 36 -9 49 -5 18 -4 23 7 19 8 -3 13 -15 11 -29z
m283 22 c-6 -6 -27 -17 -47 -25 -30 -13 -36 -13 -32 -2 3 7 15 18 27 24 28 14
64 15 52 3z m-395 -10 c0 -5 -15 -15 -32 -22 -18 -7 -37 -15 -41 -17 -5 -2 -1
7 8 22 17 25 65 38 65 17z m-160 -10 c0 -12 -20 -25 -27 -18 -7 7 6 27 18 27
5 0 9 -4 9 -9z m220 -1 c0 -5 -4 -10 -10 -10 -5 0 -10 5 -10 10 0 6 5 10 10
10 6 0 10 -4 10 -10z m415 -10 c8 -13 -25 -13 -45 0 -12 8 -9 10 12 10 15 0
30 -4 33 -10z m115 0 c0 -5 -4 -10 -10 -10 -5 0 -10 5 -10 10 0 6 5 10 10 10
6 0 10 -4 10 -10z m-573 -18 c10 -7 10 -12 0 -25 -10 -15 -19 -16 -52 -9 l-40
8 30 16 c35 19 46 20 62 10z m201 -4 c23 -23 13 -38 -23 -38 -27 0 -35 4 -35
18 0 10 3 22 7 25 10 11 38 8 51 -5z m145 -16 c-4 -16 -13 -22 -34 -22 -42 0
-43 16 -1 33 20 8 38 14 39 13 1 -1 0 -12 -4 -24z m70 21 c4 -3 -7 -15 -24
-25 -36 -22 -45 -18 -29 11 10 20 40 28 53 14z m-558 -13 c3 -5 -1 -10 -9 -10
-8 0 -18 5 -21 10 -3 6 1 10 9 10 8 0 18 -4 21 -10z m-95 -9 c0 -5 -7 -22 -15
-37 -13 -26 -15 -26 -15 -7 0 12 3 28 6 37 7 17 24 22 24 7z"/>
<path d="M1013 966 c7 -14 15 -22 19 -20 14 9 9 23 -11 33 -17 10 -18 8 -8
-13z"/>
<path d="M826 765 c4 -8 11 -15 16 -15 6 0 5 6 -2 15 -7 8 -14 15 -16 15 -2 0
-1 -7 2 -15z"/>
<path d="M890 439 c0 -5 5 -7 10 -4 6 3 10 8 10 11 0 2 -4 4 -10 4 -5 0 -10
-5 -10 -11z"/>
<path d="M1002 1500 c0 -19 2 -27 5 -17 2 9 2 25 0 35 -3 9 -5 1 -5 -18z"/>
<path d="M1152 1495 c0 -16 2 -22 5 -12 2 9 2 23 0 30 -3 6 -5 -1 -5 -18z"/>
<path d="M1682 1480 c0 -14 2 -19 5 -12 2 6 2 18 0 25 -3 6 -5 1 -5 -13z"/>
<path d="M1893 1445 c0 -27 2 -38 4 -22 2 15 2 37 0 50 -2 12 -4 0 -4 -28z"/>
<path d="M992 1420 c0 -14 2 -19 5 -12 2 6 2 18 0 25 -3 6 -5 1 -5 -13z"/>
<path d="M1143 1385 c0 -33 2 -45 4 -27 2 18 2 45 0 60 -2 15 -4 0 -4 -33z"/>
<path d="M1683 1310 c0 -47 2 -66 4 -42 2 23 2 61 0 85 -2 23 -4 4 -4 -43z"/>
<path d="M1381 1364 c0 -11 3 -14 6 -6 3 7 2 16 -1 19 -3 4 -6 -2 -5 -13z"/>
<path d="M1893 1295 c0 -27 2 -38 4 -22 2 15 2 37 0 50 -2 12 -4 0 -4 -28z"/>
<path d="M983 1295 c0 -22 2 -30 4 -17 2 12 2 30 0 40 -3 9 -5 -1 -4 -23z"/>
<path d="M543 1223 c-10 -26 -11 -26 -12 -5 -1 12 -5 22 -11 22 -5 0 -9 -24
-7 -55 1 -30 5 -55 8 -55 4 0 10 -7 13 -16 3 -9 2 -12 -5 -8 -6 3 -5 -3 3 -15
7 -12 17 -21 21 -21 11 0 50 21 57 30 3 4 14 12 25 18 l20 11 -20 1 c-18 1
-17 3 8 25 15 14 23 25 17 25 -6 0 -31 -21 -56 -47 -41 -43 -44 -45 -33 -18 7
17 18 37 24 45 27 35 26 41 -3 20 -18 -13 -34 -22 -36 -19 -2 2 -1 23 4 47 8
48 -1 56 -17 15z"/>
<path d="M943 1200 c0 -30 2 -43 4 -27 2 15 2 39 0 55 -2 15 -4 2 -4 -28z"/>
<path d="M486 1227 c3 -10 9 -15 12 -12 3 3 0 11 -7 18 -10 9 -11 8 -5 -6z"/>
<path d="M971 1204 c0 -11 3 -14 6 -6 3 7 2 16 -1 19 -3 4 -6 -2 -5 -13z"/>
<path d="M755 1190 c3 -5 8 -10 11 -10 2 0 4 5 4 10 0 6 -5 10 -11 10 -5 0 -7
-4 -4 -10z"/>
<path d="M971 1164 c0 -11 3 -14 6 -6 3 7 2 16 -1 19 -3 4 -6 -2 -5 -13z"/>
<path d="M436 1161 c-4 -5 2 -7 13 -4 10 3 22 0 25 -6 4 -6 12 -11 19 -11 14
0 -24 29 -40 30 -6 0 -14 -4 -17 -9z"/>
<path d="M2030 1081 c0 -6 4 -13 10 -16 6 -3 7 1 4 9 -7 18 -14 21 -14 7z"/>
<path d="M610 974 c-16 -26 -26 -52 -22 -58 4 -7 8 -6 10 4 1 9 15 24 30 34
15 10 19 15 10 12 -22 -7 -23 3 -2 32 8 12 13 22 9 22 -3 0 -19 -21 -35 -46z"/>
<path d="M66 904 c-24 -24 -19 -30 7 -8 12 10 24 20 26 21 2 2 -1 3 -7 3 -6 0
-18 -7 -26 -16z"/>
<path d="M68 843 c7 -3 16 -2 19 1 4 3 -2 6 -13 5 -11 0 -14 -3 -6 -6z"/>
<path d="M314 755 c-25 -19 -14 -19 22 0 16 8 22 15 13 15 -8 0 -24 -7 -35
-15z"/>
<path d="M285 670 c-7 -12 2 -12 30 0 19 8 19 9 -2 9 -12 1 -25 -3 -28 -9z"/>
<path d="M145 644 c-9 -15 -12 -23 -6 -20 11 7 35 46 28 46 -3 0 -12 -12 -22
-26z"/>
</g>
</svg>
