<?xml version="1.0" standalone="no"?>
<!DOCTYPE svg PUBLIC "-//W3C//DTD SVG 20010904//EN"
 "http://www.w3.org/TR/2001/REC-SVG-20010904/DTD/svg10.dtd">
<svg version="1.0" xmlns="http://www.w3.org/2000/svg"
 width="181.000000pt" height="279.000000pt" viewBox="0 0 181.000000 279.000000"
 preserveAspectRatio="xMidYMid meet">

<g transform="translate(0.000000,279.000000) scale(0.100000,-0.100000)"
fill="#000000" stroke="none">
<path d="M948 2724 c-4 -5 0 -20 8 -34 7 -14 13 -18 13 -10 -1 24 -15 54 -21
44z"/>
<path d="M986 2700 c8 -44 28 -69 37 -46 4 9 2 16 -3 16 -6 0 -10 6 -10 13 0
7 -7 22 -15 33 -15 18 -16 17 -9 -16z"/>
<path d="M893 2705 c-3 -9 -3 -19 1 -22 3 -4 6 2 6 11 0 12 5 16 15 12 8 -3
15 -1 15 4 0 16 -30 11 -37 -5z"/>
<path d="M1031 2676 c1 -81 -20 -238 -32 -230 -5 3 -9 -3 -9 -13 0 -10 -5 -25
-11 -33 -8 -12 -9 -9 -5 12 5 21 3 26 -8 22 -8 -3 -17 -15 -20 -27 -6 -22 -7
-22 -20 3 -14 24 -14 22 -11 -25 2 -27 1 -44 -1 -37 -3 6 -11 12 -18 12 -16 0
-56 37 -56 52 0 7 5 6 15 -2 26 -21 16 5 -10 28 -13 12 -27 17 -30 12 -12 -19
-23 -10 -29 25 -4 19 -11 37 -16 40 -13 8 -24 -59 -17 -101 5 -30 4 -34 -8
-24 -13 10 -15 7 -15 -18 0 -39 -16 -50 -24 -17 -4 14 -13 25 -20 25 -8 0 -16
5 -18 11 -2 6 -27 12 -56 12 -41 1 -53 5 -58 19 -3 10 -2 23 1 29 9 14 -4 81
-14 74 -5 -2 -12 -37 -15 -76 -4 -40 -14 -82 -23 -95 -17 -26 -25 -124 -11
-124 6 0 8 -17 6 -37 -3 -23 1 -47 10 -60 25 -40 -5 -25 -47 23 -23 26 -41 44
-41 40 0 -3 19 -27 43 -53 48 -52 144 -103 197 -104 33 0 34 -1 11 -10 -18 -7
-35 -5 -63 6 -21 8 -52 15 -69 15 -16 0 -44 7 -61 16 -41 21 -199 16 -243 -9
-38 -20 -31 -21 42 -2 64 17 97 19 89 6 -3 -4 26 -11 65 -14 75 -6 144 -39
134 -64 -2 -7 0 -13 5 -13 16 0 16 35 0 47 -25 20 8 16 59 -7 24 -11 60 -21
80 -21 20 -1 27 -3 16 -6 -61 -13 -88 -34 -65 -48 6 -4 8 -10 5 -14 -6 -11
-55 -1 -55 11 0 6 -7 5 -15 -2 -14 -12 -20 -7 -16 14 1 5 -5 4 -13 -3 -13 -11
-18 -10 -31 2 -18 19 -19 24 -2 30 6 2 1 3 -13 1 -14 -1 -43 8 -65 22 -22 13
-47 24 -55 23 -8 0 0 -7 18 -15 39 -17 43 -37 5 -28 -16 4 -36 11 -45 15 -23
12 -25 11 -25 -6 0 -9 10 -15 24 -15 14 0 21 -4 18 -10 -3 -5 1 -10 10 -10 9
0 60 -13 113 -29 126 -39 138 -40 156 -16 13 17 15 17 16 4 0 -9 -7 -22 -15
-29 -8 -7 -15 -19 -15 -26 0 -10 6 -8 19 5 26 26 43 59 36 71 -5 9 35 43 43
36 2 -3 -6 -17 -17 -33 -12 -16 -24 -45 -28 -66 -6 -37 -5 -37 28 -37 26 0 30
3 19 10 -13 8 -12 10 3 10 9 0 17 6 18 13 0 6 5 2 12 -11 8 -18 8 -25 -3 -32
-10 -6 -8 -9 6 -12 31 -8 -65 -48 -111 -47 l-40 1 42 8 c47 10 83 26 83 39 0
14 -175 -25 -193 -44 -12 -12 -100 -10 -247 6 -8 0 17 11 55 24 39 12 74 20
80 16 5 -3 -1 -9 -15 -13 -18 -5 -14 -6 13 -2 21 3 37 1 37 -5 0 -18 44 -17
105 2 84 27 85 33 7 30 -50 -2 -61 0 -42 7 18 7 8 8 -40 5 -86 -5 -104 -9
-173 -35 -37 -14 -69 -20 -90 -16 l-32 6 30 -14 c32 -15 128 -31 265 -45 l85
-8 -75 -2 c-41 -1 -82 -6 -90 -12 -11 -7 15 -9 92 -6 94 3 114 7 168 34 33 16
62 27 65 25 2 -3 -37 -24 -88 -48 -50 -24 -93 -50 -95 -59 -2 -10 2 -13 15 -9
14 5 14 2 -4 -14 -13 -11 -23 -27 -23 -36 0 -13 3 -13 28 0 31 16 42 18 42 5
0 -5 -9 -11 -20 -14 -11 -3 -20 -11 -20 -17 0 -15 63 -5 68 10 2 6 8 10 13 10
6 0 7 -4 4 -10 -4 -6 6 -10 24 -10 37 0 49 17 25 35 -17 13 -16 14 18 15 20 0
44 3 54 7 28 11 11 -20 -24 -42 -31 -20 -41 -35 -23 -35 5 0 23 12 40 26 39
33 43 9 5 -35 -14 -17 -23 -31 -19 -31 4 0 2 -6 -4 -13 -6 -8 -8 -17 -4 -20 3
-4 1 -7 -5 -7 -22 0 -68 -130 -78 -217 -6 -60 -6 -63 15 -63 l22 0 -22 -29
c-12 -16 -19 -37 -16 -45 4 -9 2 -16 -3 -16 -11 0 -23 36 -25 75 0 17 -2 50
-3 74 l-2 44 -21 -27 c-19 -24 -20 -30 -8 -54 7 -15 15 -30 17 -35 2 -4 -1 -7
-7 -7 -5 0 -13 10 -18 23 -6 18 -9 13 -15 -28 -5 -38 -6 -30 -3 31 2 66 8 89
28 120 29 47 47 131 26 119 -8 -4 -4 2 9 14 23 22 30 37 12 26 -5 -3 -10 3
-10 14 0 15 4 19 17 14 11 -4 14 -3 9 5 -17 27 -36 10 -51 -45 -9 -32 -25 -87
-37 -123 -11 -36 -23 -101 -27 -145 l-6 -80 -18 49 c-9 27 -17 70 -18 95 0 25
-4 55 -8 65 -7 18 -8 18 -14 2 -10 -25 -30 -8 -24 20 3 19 2 22 -9 13 -12 -9
-11 -16 3 -40 9 -15 20 -26 25 -23 4 3 11 -2 15 -11 3 -10 1 -20 -5 -24 -7 -4
-8 -12 -2 -21 17 -27 10 -33 -10 -10 -11 13 -20 19 -20 15 0 -5 -5 -4 -12 3
-22 22 -29 13 -8 -10 11 -12 20 -34 20 -50 0 -25 -2 -27 -19 -17 -30 19 -40
43 -71 166 -34 137 -56 172 -45 73 3 -36 15 -98 26 -139 11 -40 18 -76 16 -78
-8 -7 -36 74 -59 171 -12 53 -26 96 -31 96 -10 0 0 -100 13 -136 15 -39 11
-42 -16 -9 -19 22 -27 26 -31 16 -4 -11 -10 -8 -25 10 -19 24 -19 24 -2 -16 9
-22 17 -48 18 -57 0 -9 3 -15 7 -13 3 3 11 -7 17 -20 19 -42 -17 -18 -49 33
-16 25 -29 39 -29 31 0 -8 -13 1 -30 21 -16 19 -30 31 -30 27 0 -12 55 -90 75
-107 9 -7 21 -23 26 -34 9 -18 8 -19 -3 -6 -40 44 -148 143 -148 136 0 -5 35
-44 78 -88 59 -62 70 -77 45 -64 -18 9 -38 16 -46 16 -8 0 -20 14 -27 30 -7
17 -17 33 -21 36 -14 8 29 -95 53 -130 39 -56 184 -177 236 -197 13 -5 22 -17
22 -29 0 -11 4 -20 9 -20 19 0 3 52 -26 83 -37 40 -68 87 -57 87 5 0 35 -26
67 -57 53 -52 59 -55 53 -30 -7 31 -6 31 28 16 16 -7 31 -8 39 -3 7 5 4 1 -7
-9 -10 -10 -24 -16 -30 -14 -6 2 -18 -6 -27 -17 -13 -16 -14 -25 -6 -44 9 -20
7 -27 -18 -50 -20 -19 -26 -22 -22 -9 4 11 1 20 -7 23 -8 3 -17 16 -20 30 -9
33 -26 31 -27 -3 l-1 -28 -7 30 -7 30 -8 -33 c-5 -22 -4 -38 5 -48 6 -8 10
-17 7 -20 -3 -2 -13 7 -22 21 -17 26 -38 34 -34 12 2 -6 -5 -11 -15 -11 -18 2
-23 -11 -9 -20 12 -7 13 -74 2 -81 -5 -3 -8 0 -5 7 3 7 -3 18 -14 25 -15 10
-20 9 -24 -1 -7 -18 20 -56 39 -56 8 0 14 -5 14 -11 0 -8 -17 -10 -49 -7 -64
6 -76 -1 -60 -35 13 -29 34 -33 74 -15 22 10 28 9 43 -7 16 -18 16 -18 0 -6
-15 12 -19 10 -28 -14 -13 -34 -13 -75 0 -75 6 0 10 -9 10 -21 0 -11 4 -18 9
-14 6 3 14 -3 20 -12 10 -17 11 -16 17 5 5 18 9 20 20 11 9 -7 12 -20 8 -31
-4 -13 2 -28 17 -44 26 -28 39 -31 39 -9 0 27 20 16 27 -15 5 -26 22 -43 23
-22 0 4 13 16 28 27 21 15 24 15 13 2 -11 -14 -11 -20 0 -33 12 -14 14 -14 26
2 7 9 10 21 7 25 -3 5 -2 14 2 21 5 8 11 6 20 -6 8 -11 14 -13 19 -7 12 20 41
11 71 -20 36 -38 92 -71 164 -95 30 -11 62 -26 71 -34 38 -36 59 -48 88 -55
17 -4 45 -14 62 -22 45 -22 54 -7 35 58 -9 29 -16 72 -16 95 0 41 4 46 94 129
52 48 114 100 138 116 23 16 36 29 27 29 -13 0 -118 -78 -158 -117 -29 -30
-21 -2 12 39 39 48 57 80 57 100 0 7 -9 -2 -20 -20 -19 -32 -119 -162 -124
-162 -2 0 5 24 15 53 10 28 18 69 19 89 l0 37 131 66 c72 36 124 65 117 65 -7
0 -67 -27 -132 -60 -66 -33 -121 -60 -123 -60 -2 0 -3 9 -3 20 0 11 27 52 59
91 33 39 59 79 58 90 -2 26 -8 24 -43 -12 -16 -17 -37 -35 -47 -41 -17 -8 -17
-7 -7 12 6 12 17 23 25 26 7 3 18 18 23 32 5 15 29 50 53 77 38 44 39 47 8 20
-18 -16 -39 -36 -45 -43 -9 -10 -14 -9 -25 5 -12 15 -12 16 4 10 14 -5 25 4
47 40 17 26 30 54 30 62 -1 9 -7 1 -15 -17 -17 -38 -28 -40 -43 -7 -14 30 -48
33 -55 4 -5 -18 -8 -19 -26 -7 -28 17 -26 26 9 46 37 21 37 32 4 57 l-25 19
33 18 c26 15 28 17 8 12 -14 -3 -27 -7 -30 -8 -3 0 -18 9 -33 20 l-27 22 27 9
c18 6 59 6 112 0 59 -7 89 -7 101 1 13 8 21 7 34 -6 9 -9 16 -12 16 -6 0 24
-40 45 -94 51 -60 6 -77 23 -23 24 23 0 27 2 14 8 -16 6 -16 9 7 30 23 22 28
23 72 12 25 -7 49 -9 52 -7 3 3 -9 9 -26 12 -30 6 -45 24 -20 24 6 0 9 2 7 5
-3 2 -21 0 -40 -5 -35 -10 -31 -3 18 26 15 9 13 10 -14 6 -18 -2 -33 -2 -33 1
0 10 72 47 93 47 17 0 19 2 7 10 -19 12 -14 15 45 33 28 9 43 16 35 16 -8 0
-42 -8 -75 -18 -44 -14 -54 -20 -40 -24 41 -12 -43 2 -135 22 -54 12 -112 19
-135 16 -29 -4 -35 -2 -20 4 16 8 13 9 -17 9 -37 -1 -38 -2 -54 -57 -9 -30
-25 -72 -35 -93 -34 -68 -12 -40 31 37 23 41 43 75 46 75 25 0 -41 -125 -104
-195 -39 -44 -53 -40 -24 7 28 48 87 207 78 215 -4 4 -27 -14 -53 -39 -44 -44
-46 -48 -56 -132 -11 -86 -23 -110 -29 -59 -3 23 -7 18 -28 -37 -14 -35 -31
-65 -37 -68 -22 -7 -14 25 10 41 l22 16 -32 7 c-18 3 -33 10 -33 14 0 27 31
161 45 193 8 21 13 42 10 47 -4 6 -1 10 4 10 6 0 23 19 38 41 15 23 29 36 31
30 2 -6 -5 -23 -16 -38 -36 -51 -91 -208 -77 -221 2 -2 15 18 29 45 13 27 32
55 40 62 14 12 38 75 41 106 1 6 6 20 13 33 11 19 10 22 -5 23 -10 0 -1 9 22
19 40 19 33 26 -22 21 -24 -2 -32 14 -10 22 6 3 2 6 -9 6 -27 1 -50 51 -24 51
6 0 10 -6 10 -13 0 -9 20 -12 74 -11 75 2 96 7 96 25 0 6 -25 9 -60 7 -33 -2
-60 1 -62 7 -2 6 26 11 67 13 44 2 76 8 86 18 13 11 18 12 21 3 3 -9 12 -8 36
4 18 8 30 11 27 6 -7 -11 -10 -11 57 1 31 6 109 13 174 15 66 2 135 9 154 14
l35 9 -40 2 c-32 1 -36 3 -20 10 19 8 19 9 1 9 -11 1 -48 -6 -82 -15 -35 -8
-74 -14 -86 -12 -15 3 -3 9 37 18 33 8 66 19 72 26 7 7 16 14 20 16 5 2 19 16
33 31 18 21 20 26 7 21 -9 -3 -17 -9 -17 -13 0 -18 -61 -41 -97 -37 -21 3 -45
5 -53 6 -21 2 64 35 194 76 85 26 99 33 61 28 -58 -7 -57 -2 5 19 85 30 3 18
-95 -14 -52 -16 -99 -28 -104 -24 -5 3 -30 -4 -55 -15 -25 -10 -46 -17 -46
-15 0 2 24 20 54 39 30 19 57 40 62 47 4 7 -6 4 -22 -8 -16 -11 -45 -28 -64
-38 -34 -17 -33 -16 10 21 81 70 175 174 172 190 -1 7 8 15 20 18 14 5 18 9
10 13 -6 2 -10 9 -6 14 3 5 3 9 0 9 -3 0 -16 -18 -29 -41 -14 -24 -27 -36 -31
-30 -4 6 -2 11 5 11 7 0 10 2 7 5 -3 3 -26 -3 -52 -14 -43 -19 -46 -19 -46 -3
0 9 16 41 36 71 20 29 31 50 25 47 -16 -10 -14 10 5 42 15 26 15 26 -1 7 -9
-11 -28 -42 -41 -68 -19 -37 -29 -47 -42 -42 -9 3 -29 9 -44 12 -33 7 -36 23
-8 48 20 18 80 115 80 129 0 4 -6 4 -12 -1 -15 -9 16 43 45 74 11 13 17 26 14
30 -4 3 -7 1 -7 -5 0 -7 -5 -12 -11 -12 -6 0 -9 9 -6 20 9 35 -1 22 -38 -49
-20 -38 -46 -78 -57 -88 -21 -18 -21 -18 -9 5 8 14 8 22 1 22 -5 0 -10 -3 -10
-8 0 -4 -9 -13 -20 -20 -18 -11 -19 -10 -9 14 5 15 7 29 4 32 -3 3 -5 1 -5 -4
0 -15 -41 -77 -46 -71 -3 3 0 15 6 27 8 15 8 20 1 16 -7 -4 -10 0 -9 11 0 10
0 29 -1 43 -1 22 -3 23 -12 7 -5 -9 -7 -22 -4 -27 3 -6 1 -10 -4 -10 -6 0 -11
4 -11 10 0 18 -43 4 -46 -16 -2 -10 -11 -24 -21 -32 -10 -7 -17 -20 -15 -29 3
-11 -1 -14 -14 -9 -10 4 -22 0 -30 -11 -13 -17 -13 -17 -14 0 0 9 4 17 9 17 5
0 11 20 12 44 2 24 1 43 -2 41 -3 -2 -13 5 -22 15 -11 13 -12 20 -4 24 9 3 8
7 -2 15 -12 8 -13 16 -4 45 6 20 7 38 3 41 -5 3 -5 17 0 33 5 15 14 44 20 65
7 21 9 41 6 44 -3 4 -6 1 -6 -5 0 -7 -4 -12 -9 -12 -5 0 -7 8 -4 18 3 12 -1
19 -11 19 -11 0 -16 -10 -15 -31z m-211 -266 c0 -5 -2 -10 -4 -10 -3 0 -8 5
-11 10 -3 6 -1 10 4 10 6 0 11 -4 11 -10z m157 -52 c-3 -8 -6 -5 -6 6 -1 11 2
17 5 13 3 -3 4 -12 1 -19z m195 -9 c-4 -13 -15 -25 -24 -25 -23 -2 -23 5 4 33
25 27 30 26 20 -8z m-356 -2 c1 -12 1 -13 -3 -2 -5 18 -30 20 -35 3 -3 -8 -6
-7 -10 4 -5 11 0 15 20 14 18 -1 27 -7 28 -19z m134 14 c0 -6 -4 -13 -10 -16
-5 -3 -10 1 -10 9 0 9 5 16 10 16 6 0 10 -4 10 -9z m260 -4 c0 -8 -7 -14 -15
-14 -11 0 -12 4 -4 14 6 7 13 13 15 13 2 0 4 -6 4 -13z m-560 -27 c-6 -12 -14
-19 -17 -17 -2 3 1 15 7 27 6 12 14 19 17 17 2 -3 -1 -15 -7 -27z m-50 0 c0
-19 -18 -19 -23 -1 -3 14 -1 18 9 14 8 -3 14 -9 14 -13z m753 -12 c-24 -41
-80 -98 -98 -98 -7 0 14 29 48 65 34 36 63 65 65 65 2 0 -5 -14 -15 -32z
m-823 12 c0 -5 -2 -10 -4 -10 -3 0 -8 5 -11 10 -3 6 -1 10 4 10 6 0 11 -4 11
-10z m320 -13 c0 -14 -19 -37 -31 -37 -4 0 -2 11 4 25 13 27 27 33 27 12z
m-313 -13 c-3 -3 -12 -4 -19 -1 -8 3 -5 6 6 6 11 1 17 -2 13 -5z m77 -19 c-4
-8 -11 -15 -16 -15 -6 0 -5 6 2 15 7 8 14 15 16 15 2 0 1 -7 -2 -15z m74 6
c-2 -4 8 -18 22 -29 20 -17 22 -21 8 -22 -9 0 -24 10 -32 22 -18 26 -20 38 -6
38 6 0 9 -4 8 -9z m52 -7 c0 -2 -7 -4 -15 -4 -8 0 -15 4 -15 10 0 5 7 7 15 4
8 -4 15 -8 15 -10z m144 7 c3 -5 -1 -14 -8 -20 -12 -10 -13 -8 -9 8 6 23 9 25
17 12z m-240 -16 c-4 -8 -11 -15 -16 -15 -6 0 -5 6 2 15 7 8 14 15 16 15 2 0
1 -7 -2 -15z m456 4 c0 -8 4 -8 14 0 7 6 20 9 29 5 12 -4 13 -11 5 -35 -12
-34 -32 -40 -24 -6 l6 22 -11 -22 c-13 -25 -29 -30 -29 -10 0 6 -5 4 -11 -6
-6 -9 -14 -15 -18 -12 -5 2 -14 -2 -21 -10 -9 -10 -9 -15 -1 -15 6 0 11 3 11
8 0 4 16 8 35 8 19 1 35 -1 35 -5 -1 -12 -30 -44 -30 -33 0 9 -12 10 -40 6
-22 -4 -40 -4 -40 -1 0 2 7 22 16 43 20 50 74 95 74 63z m-306 -20 c-27 -11
-44 -11 -44 0 0 11 40 20 54 12 5 -2 1 -8 -10 -12z m110 -14 c-10 -16 -20 -23
-22 -16 -4 12 28 55 35 47 3 -2 -3 -17 -13 -31z m-224 -8 c0 -5 -4 -5 -10 -2
-5 3 -10 14 -10 23 0 15 2 15 10 2 5 -8 10 -19 10 -23z m-107 -1 c3 -8 3 -16
0 -19 -7 -8 -32 16 -26 26 7 11 20 8 26 -7z m267 5 c0 -10 -24 -21 -43 -21 -7
0 -3 7 7 15 22 17 36 19 36 6z m-80 -21 c0 -5 -10 -10 -22 -9 -22 0 -22 1 -3
9 11 5 21 9 23 9 1 1 2 -3 2 -9z m107 -25 c-4 -8 -17 -15 -29 -15 l-23 0 25
20 c27 20 36 19 27 -5z m-163 -2 c-4 -10 -8 -28 -8 -40 -1 -25 -15 -32 -17 -8
-1 8 -2 21 -3 28 -2 14 15 36 28 37 4 0 5 -8 0 -17z m86 -3 c-20 -13 -53 -13
-45 0 3 6 18 10 33 10 21 0 24 -2 12 -10z m-35 -30 c17 -7 15 -9 -12 -9 -18
-1 -33 4 -33 9 0 12 17 12 45 0z m115 -10 c0 -5 -8 -10 -17 -10 -15 0 -16 2
-3 10 19 12 20 12 20 0z m-62 -16 c-9 -9 -21 -13 -27 -9 -16 10 -3 25 22 25
20 0 20 -1 5 -16z m238 -12 c-18 -16 -18 -16 -6 6 6 13 14 21 18 18 3 -4 -2
-14 -12 -24z m74 8 c0 -5 -5 -10 -11 -10 -5 0 -7 5 -4 10 3 6 8 10 11 10 2 0
4 -4 4 -10z m-27 -22 c5 -17 -3 -48 -13 -48 -9 0 -19 47 -12 55 9 9 20 6 25
-7z m377 4 c0 -4 -21 -28 -46 -52 -29 -28 -44 -37 -39 -25 4 11 10 30 12 42 6
25 73 57 73 35z m-472 -27 c1 -14 -2 -25 -7 -25 -10 0 -21 36 -13 44 11 12 18
5 20 -19z m152 21 c0 -3 -4 -8 -10 -11 -5 -3 -10 -1 -10 4 0 6 5 11 10 11 6 0
10 -2 10 -4z m-116 -43 c-4 -21 -3 -24 5 -13 8 12 10 10 8 -8 -1 -12 -6 -21
-12 -19 -12 4 -19 33 -11 53 9 24 17 15 10 -13z m-71 -42 c-10 -13 -24 20 -17
40 8 23 8 23 14 -6 3 -16 5 -32 3 -34z m167 24 c7 -8 8 -15 2 -15 -5 0 -15 7
-22 15 -7 8 -8 15 -2 15 5 0 15 -7 22 -15z m-393 -21 c-3 -3 -12 -4 -19 -1 -8
3 -5 6 6 6 11 1 17 -2 13 -5z m264 -1 c0 -5 3 -19 5 -33 5 -29 -10 -16 -21 18
-4 13 -2 22 4 22 6 0 11 -3 12 -7z m112 -7 c4 -10 0 -12 -14 -9 -27 7 -34 23
-11 23 11 0 22 -6 25 -14z m-328 -34 c-3 -3 -11 0 -18 7 -9 10 -8 11 6 5 10
-3 15 -9 12 -12z m306 -4 c11 -20 10 -22 -3 -10 -9 7 -20 12 -24 11 -18 -3
-25 1 -19 11 11 17 34 11 46 -12z m-116 2 c3 -5 2 -10 -4 -10 -5 0 -13 5 -16
10 -3 6 -2 10 4 10 5 0 13 -4 16 -10z m165 0 c0 -5 -5 -10 -11 -10 -5 0 -7 5
-4 10 3 6 8 10 11 10 2 0 4 -4 4 -10z m-252 -84 c3 -62 24 -75 30 -18 2 18 7
32 13 32 14 0 11 -43 -6 -67 -9 -13 -11 -24 -6 -28 14 -8 62 5 55 16 -3 5 -1
9 4 9 5 0 15 11 22 25 7 13 17 22 22 19 11 -7 0 -44 -21 -67 -15 -18 -14 -18
24 -12 43 8 130 48 140 65 4 6 11 7 17 4 6 -4 8 -2 4 4 -10 17 10 23 24 7 7
-8 9 -15 4 -15 -5 0 -29 -19 -53 -41 -24 -23 -62 -48 -85 -56 -59 -21 -219
-44 -230 -33 -13 13 7 19 89 24 39 2 81 9 95 15 20 7 14 8 -25 4 -68 -7 -174
35 -175 70 0 4 9 3 21 -3 29 -16 35 -5 21 33 -16 44 -15 80 1 75 7 -3 13 -27
15 -62z m-71 34 c2 -23 -12 -35 -22 -20 -4 6 -1 17 5 25 16 19 15 19 17 -5z
m-277 -115 c27 -15 20 -19 -17 -9 -13 4 -23 10 -23 15 0 12 11 11 40 -6z m795
5 c-16 -4 -48 -8 -70 -7 l-40 0 40 7 c22 4 54 7 70 7 l30 1 -30 -8z m-128 -16
c-3 -3 -12 -4 -19 -1 -8 3 -5 6 6 6 11 1 17 -2 13 -5z m-383 -72 c-4 -9 -6
-22 -5 -28 2 -17 -26 -25 -51 -14 -13 5 -17 9 -10 9 6 1 12 6 12 11 0 15 54
60 58 49 2 -5 1 -17 -4 -27z m-4 -72 c0 -5 -7 -10 -15 -10 -8 0 -15 5 -15 10
0 6 7 10 15 10 8 0 15 -4 15 -10z m-40 -20 c0 -5 -8 -10 -17 -10 -15 0 -16 2
-3 10 19 12 20 12 20 0z m-85 -10 c-3 -5 -14 -10 -23 -9 -14 0 -13 2 3 9 27
11 27 11 20 0z m489 -176 c-18 -14 -14 -15 46 -10 48 4 57 3 36 -4 -17 -5 -59
-11 -93 -13 -35 -3 -67 -8 -71 -12 -7 -7 126 0 178 10 l25 4 -25 -19 c-21 -16
-41 -20 -126 -20 -82 0 -103 3 -108 15 -4 10 1 15 17 16 21 1 21 1 -3 9 -21 7
-18 8 20 9 25 1 56 8 70 16 35 20 60 20 34 -1z m83 -80 c-3 -3 -12 -4 -19 -1
-8 3 -5 6 6 6 11 1 17 -2 13 -5z m-257 -111 c-11 -17 -11 -17 -6 0 3 10 7 35
8 55 l1 37 4 -37 c2 -21 -1 -46 -7 -55z m225 44 c-22 -13 -106 -25 -127 -18
-7 3 21 12 62 21 79 17 98 16 65 -3z m-243 -17 c-2 -16 -8 -30 -13 -30 -5 0
-6 7 -4 15 3 8 7 22 10 30 8 25 12 17 7 -15z m-70 -42 c-7 -7 -12 -8 -12 -2 0
14 12 26 19 19 2 -3 -1 -11 -7 -17z m163 -8 c17 -6 14 -9 -18 -15 -40 -8 -53
-3 -42 14 7 13 31 13 60 1z m225 -10 c0 -11 -50 -11 -95 0 -24 6 -17 8 33 9
35 0 62 -3 62 -9z m-397 -17 c-7 -2 -13 -13 -13 -24 0 -10 -4 -19 -10 -19 -5
0 -10 6 -10 13 0 16 20 37 35 36 5 0 4 -3 -2 -6z m60 -45 c-3 -24 -10 -47 -16
-53 -6 -7 -7 5 -3 34 11 71 27 87 19 19z m-604 -33 c28 -35 44 -62 36 -59 -25
10 -109 124 -91 124 2 0 27 -29 55 -65z m-92 2 c27 -19 44 -40 49 -59 3 -17
22 -49 43 -71 39 -44 30 -42 -34 7 -96 73 -190 200 -122 165 12 -7 41 -25 64
-42z m733 33 c0 -5 -5 -10 -11 -10 -5 0 -7 5 -4 10 3 6 8 10 11 10 2 0 4 -4 4
-10z m-471 -139 c7 -11 9 -21 7 -21 -10 0 -34 55 -39 90 -6 33 -5 32 7 -6 8
-23 19 -51 25 -63z m323 69 c-5 -35 -32 -41 -32 -7 0 26 7 37 25 37 7 0 10
-11 7 -30z m-86 1 c-9 -10 -18 -32 -19 -50 -2 -32 -11 -39 -23 -20 -5 8 -9 7
-15 -4 -13 -22 6 -64 30 -72 14 -4 21 -15 21 -32 0 -15 11 -36 26 -49 29 -28
29 -28 56 -13 16 9 19 8 16 -3 -2 -7 -19 -17 -36 -23 -40 -11 -40 -18 -2 -52
37 -32 38 -43 5 -43 -24 0 -26 -2 -20 -37 4 -21 9 -47 11 -58 4 -16 3 -17 -4
-5 -5 8 -18 53 -27 100 -10 47 -22 89 -26 95 -16 16 -10 -17 26 -150 38 -142
42 -168 19 -115 -20 44 -64 221 -64 254 0 14 -4 27 -10 31 -5 3 -7 11 -5 18
11 39 13 77 4 77 -6 0 -23 10 -39 23 -30 25 -27 53 7 78 10 8 26 26 36 42 10
15 25 27 34 27 15 0 15 -2 -1 -19z m-197 -50 c0 -24 -2 -23 -14 9 -18 46 -18
59 0 36 8 -11 15 -31 14 -45z m421 34 c0 -20 -22 -65 -32 -65 -12 0 -10 64 4
78 13 13 28 7 28 -13z m80 -4 c0 -10 -16 -33 -35 -50 -37 -33 -52 -40 -38 -18
5 6 19 29 32 50 25 40 41 48 41 18z m-469 -67 c-18 -23 -21 -24 -21 -8 0 11 8
31 17 44 15 21 18 22 21 8 2 -10 -6 -30 -17 -44z m289 18 c0 -13 -3 -12 -15 4
-19 25 -19 40 0 24 8 -7 15 -20 15 -28z m-430 -12 c8 -5 11 -12 8 -16 -10 -9
-38 3 -38 16 0 12 10 13 30 0z m383 -76 c4 -4 7 -11 7 -16 0 -14 -27 -9 -51
11 l-24 19 19 38 19 39 11 -42 c6 -23 14 -45 19 -49z m238 16 c17 0 20 -3 12
-11 -17 -17 -67 -7 -71 14 -3 16 -1 17 16 8 12 -6 31 -11 43 -11z m-389 -72
c19 -17 19 -18 1 -18 -25 0 -63 28 -63 46 0 9 5 25 12 37 11 21 12 21 20 -13
5 -19 18 -43 30 -52z m255 36 c9 4 13 1 11 -6 -3 -7 -17 -14 -31 -16 -30 -4
-44 16 -33 45 6 14 9 14 22 -6 10 -13 22 -20 31 -17z m-337 -34 c0 -10 -7 -24
-16 -31 -14 -11 -16 -10 -13 13 2 14 -3 33 -10 42 -13 16 -12 16 12 5 15 -7
27 -20 27 -29z m315 -32 c12 -3 9 -38 -4 -51 -5 -5 -17 7 -27 29 -9 22 -19 43
-22 48 -2 4 6 1 19 -7 13 -9 29 -17 34 -19z m156 -1 c-10 -9 -11 -8 -5 6 3 10
9 15 12 12 3 -3 0 -11 -7 -18z m-111 -8 c0 -5 -4 -9 -10 -9 -5 0 -10 7 -10 16
0 8 5 12 10 9 6 -3 10 -10 10 -16z m-279 -23 c13 -46 -2 -61 -60 -61 -41 0
-48 2 -37 13 9 10 19 10 40 2 15 -5 32 -10 37 -10 14 0 11 31 -6 63 -13 26
-13 28 2 25 9 -2 20 -16 24 -32z m521 -3 c-30 -41 -102 -109 -102 -96 0 14
111 136 117 129 3 -3 -4 -17 -15 -33z m-495 5 c-3 -8 -6 -5 -6 6 -1 11 2 17 5
13 3 -3 4 -12 1 -19z m-198 -50 c9 -25 7 -33 -10 -51 l-20 -22 7 30 c3 17 7
32 8 35 1 7 -10 10 -33 10 -23 0 -37 -35 -22 -53 6 -8 6 -18 1 -27 -8 -12 -10
-10 -10 8 0 12 -9 31 -20 42 -11 11 -20 27 -20 36 0 12 7 14 32 9 24 -6 30 -4
26 7 -5 11 1 13 22 10 21 -3 32 -12 39 -34z m481 -29 c-7 -11 -14 -18 -17 -15
-3 3 0 12 7 21 18 21 23 19 10 -6z m100 18 c0 -2 -11 -18 -25 -37 -14 -19 -25
-31 -25 -26 0 15 31 66 40 66 6 0 10 -1 10 -3z m-499 -38 c-18 -11 -35 -18
-38 -15 -5 5 46 35 62 36 6 0 -5 -9 -24 -21z m29 -18 c0 -11 -31 -24 -39 -16
-3 3 1 10 9 15 19 12 30 12 30 1z m270 -1 c0 -5 -5 -10 -11 -10 -5 0 -7 5 -4
10 3 6 8 10 11 10 2 0 4 -4 4 -10z m-355 -20 c-3 -5 -12 -10 -18 -10 -7 0 -6
4 3 10 19 12 23 12 15 0z m556 -59 c-14 -26 -14 -34 0 -25 17 10 2 -47 -17
-66 -13 -13 -14 -11 -12 19 2 22 -2 36 -11 39 -9 3 -11 0 -6 -8 5 -9 4 -11 -4
-6 -6 4 -9 11 -6 16 6 10 -21 40 -36 40 -6 0 -6 -7 1 -19 17 -32 12 -36 -14
-12 -14 13 -40 27 -58 31 -29 7 -26 8 25 9 32 1 68 -4 80 -11 18 -9 24 -7 42
16 15 20 21 24 23 12 2 -8 -2 -24 -7 -35z m-390 -22 c-31 -43 -40 -45 -20 -6
15 28 41 58 46 53 3 -2 -9 -23 -26 -47z m-73 -90 c-2 -5 -15 2 -28 17 -14 15
-19 24 -12 20 16 -10 15 6 -3 30 -8 10 -14 26 -14 34 -1 8 13 -9 30 -38 17
-28 29 -57 27 -63z m15 47 c3 -33 2 -36 -10 -20 -15 20 -17 43 -6 71 8 20 9
17 16 -51z m-243 19 c0 -8 -4 -17 -10 -20 -6 -4 -10 5 -10 20 0 15 4 24 10 20
6 -3 10 -12 10 -20z m558 -40 c0 -16 -2 -15 -8 5 -4 14 -8 34 -8 45 0 16 2 15
8 -5 4 -14 8 -34 8 -45z m-478 30 c0 -16 -6 -25 -15 -25 -8 0 -15 5 -15 10 0
6 5 10 12 10 6 0 3 7 -8 15 -19 14 -18 14 4 15 17 0 22 -6 22 -25z m259 -72
c10 -40 28 -88 40 -108 18 -31 18 -34 3 -26 -20 11 -35 36 -56 96 -9 26 -15
33 -16 20 l-1 -20 -9 20 c-5 13 -3 28 5 41 8 13 10 26 4 35 -12 19 -12 36 1
23 5 -5 18 -42 29 -81z m315 17 c4 -31 3 -40 -4 -30 -5 8 -10 30 -10 49 0 45
6 37 14 -19z m-624 -17 c0 -20 -3 -24 -11 -16 -7 7 -9 19 -6 27 10 24 17 19
17 -11z m57 12 c-6 -17 -37 -18 -37 -1 0 9 8 14 20 13 11 -1 19 -6 17 -12z
m63 -31 c0 -13 -4 -24 -10 -24 -5 0 -10 14 -10 31 0 17 4 28 10 24 6 -3 10
-17 10 -31z m149 -33 c6 -21 18 -44 26 -51 8 -7 15 -17 15 -22 0 -15 -30 12
-62 56 -22 30 -25 42 -16 49 10 7 10 10 1 14 -7 2 -13 9 -13 15 0 23 38 -24
49 -61z m-112 27 c-3 -7 -5 -2 -5 12 0 14 2 19 5 13 2 -7 2 -19 0 -25z m380 0
c-3 -8 -6 -5 -6 6 -1 11 2 17 5 13 3 -3 4 -12 1 -19z m-297 -60 c0 -14 -19 1
-31 25 -12 22 -12 22 10 3 11 -11 21 -23 21 -28z m114 16 c3 -8 2 -12 -4 -9
-6 3 -10 10 -10 16 0 14 7 11 14 -7z m205 -154 c21 -10 41 -26 45 -35 9 -24 7
-29 -6 -18 -7 6 -25 13 -40 17 -28 6 -58 31 -58 47 0 14 17 11 59 -11z"/>
<path d="M926 2655 c-9 -26 -7 -32 5 -12 6 10 9 21 6 23 -2 3 -7 -2 -11 -11z"/>
<path d="M967 2634 c-4 -4 -7 -14 -7 -23 0 -11 3 -12 11 -4 6 6 10 16 7 23 -2
6 -7 8 -11 4z"/>
<path d="M996 2611 c-7 -11 3 -41 14 -41 4 0 5 11 2 25 -5 27 -8 30 -16 16z"/>
<path d="M917 2593 c-13 -13 -7 -32 8 -27 8 4 15 1 15 -7 0 -7 3 -10 6 -6 8 7
-5 47 -15 47 -4 0 -11 -3 -14 -7z"/>
<path d="M960 2581 c0 -6 4 -13 10 -16 6 -3 7 1 4 9 -7 18 -14 21 -14 7z"/>
<path d="M900 2536 c0 -8 5 -18 10 -21 6 -3 10 1 10 9 0 8 -4 18 -10 21 -5 3
-10 -1 -10 -9z"/>
<path d="M940 2523 c0 -11 7 -23 15 -27 19 -7 19 3 0 28 -15 19 -15 19 -15 -1z"/>
<path d="M985 2519 c-4 -6 -5 -12 -2 -15 2 -3 7 2 10 11 7 17 1 20 -8 4z"/>
<path d="M852 2488 c-6 -13 -11 -17 -11 -10 -1 7 -5 10 -11 7 -6 -4 -2 -15 10
-27 23 -25 25 -24 33 20 7 37 -5 43 -21 10z"/>
<path d="M930 2455 c7 -9 15 -13 17 -11 7 7 -7 26 -19 26 -6 0 -6 -6 2 -15z"/>
<path d="M1130 2450 c-6 -11 -8 -20 -6 -20 3 0 10 9 16 20 6 11 8 20 6 20 -3
0 -10 -9 -16 -20z"/>
<path d="M288 2343 c7 -3 16 -2 19 1 4 3 -2 6 -13 5 -11 0 -14 -3 -6 -6z"/>
<path d="M348 2333 c7 -3 16 -2 19 1 4 3 -2 6 -13 5 -11 0 -14 -3 -6 -6z"/>
<path d="M390 2248 c0 -9 7 -22 17 -29 15 -13 15 -12 3 11 -17 34 -20 36 -20
18z"/>
<path d="M458 2211 c29 -42 45 -48 18 -6 -9 14 -14 30 -11 35 3 6 -3 10 -14
10 -20 0 -19 -2 7 -39z"/>
<path d="M1565 2185 c23 -8 125 -11 113 -4 -7 5 -38 8 -68 8 -30 0 -50 -2 -45
-4z"/>
<path d="M238 2163 c7 -3 16 -2 19 1 4 3 -2 6 -13 5 -11 0 -14 -3 -6 -6z"/>
<path d="M288 2153 c7 -3 16 -2 19 1 4 3 -2 6 -13 5 -11 0 -14 -3 -6 -6z"/>
<path d="M320 2138 c0 -5 8 -8 18 -8 25 0 142 -40 167 -57 11 -7 26 -13 35
-13 18 1 -99 60 -117 60 -7 0 -13 4 -13 9 0 5 -20 11 -45 13 -25 2 -45 0 -45
-4z"/>
<path d="M1560 2130 c36 -11 52 -11 45 0 -3 6 -21 10 -38 9 -31 -1 -31 -1 -7
-9z"/>
<path d="M1605 2085 c-31 -33 -81 -72 -130 -100 -91 -52 -93 -60 -4 -14 62 31
135 91 170 141 31 43 18 34 -36 -27z"/>
<path d="M281 2034 c-51 -23 -31 -26 25 -4 27 10 40 19 29 19 -11 0 -35 -7
-54 -15z"/>
<path d="M600 1996 c0 -2 7 -7 16 -10 8 -3 12 -2 9 4 -6 10 -25 14 -25 6z"/>
<path d="M618 1963 c7 -3 16 -2 19 1 4 3 -2 6 -13 5 -11 0 -14 -3 -6 -6z"/>
<path d="M308 1943 c12 -2 32 -2 45 0 12 2 2 4 -23 4 -25 0 -35 -2 -22 -4z"/>
<path d="M525 1870 c61 -3 114 -3 120 2 5 4 -45 7 -110 6 l-120 -1 110 -7z"/>
<path d="M340 1857 c14 -8 36 -17 50 -21 l25 -7 -25 14 c-14 8 -36 17 -50 21
l-25 7 25 -14z"/>
<path d="M608 1843 c6 -2 18 -2 25 0 6 3 1 5 -13 5 -14 0 -19 -2 -12 -5z"/>
<path d="M1225 1740 c-16 -6 -45 -11 -63 -13 -24 -3 -45 -18 -86 -63 l-53 -59
126 7 c69 4 143 3 163 -2 25 -5 37 -4 35 3 -1 6 16 12 38 14 22 3 53 11 70 19
16 8 21 11 10 8 -29 -10 -211 -18 -203 -9 12 13 203 46 233 41 22 -4 26 -3 15
4 -8 5 -41 12 -73 16 -64 7 -66 13 -10 25 31 6 24 8 -37 7 -41 0 -88 3 -105 6
-16 3 -43 1 -60 -4z m-17 -27 c-10 -2 -26 -2 -35 0 -10 3 -2 5 17 5 19 0 27
-2 18 -5z m52 -33 c-8 -5 -21 -10 -28 -10 -8 0 -28 -7 -45 -15 -35 -16 -119
-36 -125 -30 -2 2 31 15 74 29 74 24 73 28 -3 11 -21 -5 -33 -4 -33 3 0 13 24
17 110 20 46 2 61 -1 50 -8z"/>
<path d="M1062 1708 c-17 -17 -15 -38 2 -32 17 7 28 31 17 38 -4 3 -13 0 -19
-6z"/>
<path d="M323 1704 c3 -4 30 -15 59 -25 50 -18 51 -19 16 -16 -21 2 -34 -1
-30 -5 12 -12 134 -22 176 -14 58 11 42 23 -43 30 -44 3 -98 13 -121 21 -45
16 -68 19 -57 9z"/>
<path d="M1020 1645 c-7 -9 -11 -18 -8 -20 3 -3 11 1 18 10 7 9 11 18 8 20 -3
3 -11 -1 -18 -10z"/>
<path d="M910 1640 c18 -12 77 -13 83 -2 3 4 -18 8 -46 9 -36 2 -47 -1 -37 -7z"/>
<path d="M550 1620 c0 -5 5 -10 11 -10 5 0 7 5 4 10 -3 6 -8 10 -11 10 -2 0
-4 -4 -4 -10z"/>
<path d="M469 1603 c-2 -33 0 -78 5 -123 l6 -45 -25 50 c-13 28 -24 56 -25 63
0 6 -4 12 -10 12 -13 0 -13 2 13 -62 27 -68 77 -132 78 -102 0 13 5 10 15 -13
8 -18 15 -33 17 -33 6 0 0 47 -8 60 -5 9 -4 15 4 18 9 3 9 7 0 18 -6 8 -13 24
-14 37 -1 12 -3 28 -4 35 0 6 -5 12 -10 12 -5 0 -7 -9 -4 -20 6 -21 -12 -28
-19 -7 -2 6 -4 36 -3 65 0 28 -3 52 -7 52 -4 0 -8 -8 -9 -17z m51 -169 c0 -8
-4 -12 -10 -9 -5 3 -10 13 -10 21 0 8 5 12 10 9 6 -3 10 -13 10 -21z"/>
<path d="M546 1591 c-4 -7 -5 -15 -2 -18 9 -9 19 4 14 18 -4 11 -6 11 -12 0z"/>
<path d="M1180 1591 c0 -6 10 -11 23 -11 12 0 29 -5 37 -11 11 -8 6 -9 -20 -5
-19 3 -71 6 -115 7 -44 1 -85 6 -91 10 -7 6 -16 3 -24 -6 -7 -8 -10 -15 -6
-15 3 0 2 -11 -3 -23 -9 -24 -9 -24 42 -15 29 5 120 6 202 3 110 -4 162 -3
194 7 l43 13 -67 1 c-36 1 -71 6 -78 13 -9 9 -2 11 33 6 43 -6 44 -5 20 9 -33
19 -190 33 -190 17z"/>
<path d="M530 1542 c0 -11 6 -22 14 -25 10 -4 12 0 9 14 -7 27 -23 34 -23 11z"/>
<path d="M623 1542 c-19 -3 -23 -12 -29 -70 -7 -60 -9 -64 -15 -32 -6 34 -6
34 -8 -11 0 -25 -4 -74 -7 -108 -4 -35 -3 -61 2 -61 5 0 11 12 12 28 1 15 7
51 13 79 5 29 12 65 13 80 2 18 9 27 18 25 8 -1 15 5 15 13 0 8 -6 15 -14 15
-7 0 -13 5 -13 10 0 6 11 10 25 10 14 0 25 4 25 9 0 14 -11 18 -37 13z"/>
<path d="M680 1540 c0 -13 20 -13 40 0 12 8 9 10 -12 10 -16 0 -28 -4 -28 -10z"/>
<path d="M731 1498 c-24 -52 -41 -114 -41 -148 0 -16 11 2 31 50 17 41 37 82
45 91 18 20 18 49 -1 49 -8 0 -24 -19 -34 -42z"/>
<path d="M918 1518 c-9 -7 -19 -26 -22 -42 -6 -24 -5 -27 6 -19 19 16 51 73
40 73 -4 0 -15 -6 -24 -12z"/>
<path d="M572 1500 c0 -14 2 -19 5 -12 2 6 2 18 0 25 -3 6 -5 1 -5 -13z"/>
<path d="M416 1465 c4 -8 11 -15 16 -15 6 0 5 6 -2 15 -7 8 -14 15 -16 15 -2
0 -1 -7 2 -15z"/>
<path d="M1428 1453 c12 -2 30 -2 40 0 9 3 -1 5 -23 4 -22 0 -30 -2 -17 -4z"/>
<path d="M430 1435 c0 -5 5 -17 10 -25 5 -8 10 -10 10 -5 0 6 -5 17 -10 25 -5
8 -10 11 -10 5z"/>
<path d="M260 1394 c0 -6 7 -19 16 -30 14 -18 14 -18 3 6 -14 31 -19 36 -19
24z"/>
<path d="M826 1348 c-9 -13 -19 -40 -22 -59 -6 -31 -3 -29 21 19 28 55 29 82
1 40z"/>
<path d="M460 1310 c20 -13 33 -13 25 0 -3 6 -14 10 -23 10 -15 0 -15 -2 -2
-10z"/>
<path d="M455 1280 c3 -5 14 -10 23 -10 15 0 15 2 2 10 -20 13 -33 13 -25 0z"/>
<path d="M336 905 c4 -8 8 -15 10 -15 2 0 4 7 4 15 0 8 -4 15 -10 15 -5 0 -7
-7 -4 -15z"/>
</g>
</svg>
