<?xml version="1.0" standalone="no"?>
<!DOCTYPE svg PUBLIC "-//W3C//DTD SVG 20010904//EN"
 "http://www.w3.org/TR/2001/REC-SVG-20010904/DTD/svg10.dtd">
<svg version="1.0" xmlns="http://www.w3.org/2000/svg"
 width="225.000000pt" height="225.000000pt" viewBox="0 0 225.000000 225.000000"
 preserveAspectRatio="xMidYMid meet">

<g transform="translate(0.000000,225.000000) scale(0.100000,-0.100000)"
fill="#000000" stroke="none">
<path d="M992 1979 c-171 -25 -346 -115 -476 -245 -339 -338 -339 -880 0
-1218 338 -338 880 -338 1218 0 308 307 339 783 76 1132 -189 251 -499 376
-818 331z m351 -74 c187 -55 347 -171 452 -330 99 -149 136 -272 136 -450 0
-203 -57 -362 -188 -523 l-35 -43 -35 70 c-18 39 -59 97 -89 130 -80 86 -128
116 -273 167 -9 3 1 15 28 34 51 37 106 120 122 183 6 26 9 80 7 120 -9 124
-69 218 -180 278 -60 32 -68 34 -163 34 -95 0 -103 -2 -163 -34 -111 -60 -171
-154 -180 -278 -2 -40 1 -94 7 -120 16 -63 71 -146 122 -183 27 -19 37 -31 28
-34 -145 -51 -193 -81 -273 -167 -30 -33 -71 -91 -89 -130 l-35 -70 -35 43
c-84 104 -140 216 -171 340 -22 90 -22 276 0 366 71 288 286 513 571 597 117
35 318 35 436 0z m-93 -405 c135 -67 199 -214 154 -356 -24 -77 -105 -162
-178 -187 -63 -22 -139 -22 -202 0 -73 25 -154 110 -178 187 -51 161 36 322
204 377 44 15 152 4 200 -21z m80 -639 c124 -39 236 -134 290 -245 49 -105 51
-97 -42 -159 -152 -101 -274 -138 -453 -138 -179 0 -301 37 -453 138 -71 47
-82 58 -76 76 53 179 206 312 397 347 82 14 262 5 337 -19z"/>
</g>
</svg>
